<mxfile host="Electron" modified="2024-03-27T14:16:52.193Z" agent="Mozilla/5.0 (Windows NT 10.0; Win64; x64) AppleWebKit/537.36 (KHTML, like Gecko) draw.io/24.0.4 Chrome/120.0.6099.109 Electron/28.1.0 Safari/537.36" etag="6_yfzo2njkw3G_39H95x" version="24.0.4" type="device">
  <diagram name="Page-1" id="EfXWwuUzm02MfaTbzwUp">
    <mxGraphModel dx="1834" dy="836" grid="0" gridSize="10" guides="1" tooltips="1" connect="1" arrows="1" fold="1" page="0" pageScale="1" pageWidth="850" pageHeight="1100" background="#ffffff" math="0" shadow="0">
      <root>
        <mxCell id="0" />
        <mxCell id="1" parent="0" />
        <UserObject label="&lt;div style=&quot;font-size: 1px&quot;&gt;&lt;p style=&quot;text-align:right;margin-left:0;margin-right:0;margin-top:0px;margin-bottom:0px;text-indent:0;vertical-align:bottom;direction:ltr;&quot;&gt;&lt;font style=&quot;font-size:14.11px;font-family:Segoe UI Semibold;color:#6b859a;direction:ltr;letter-spacing:0px;line-height:120%;opacity:1&quot;&gt;&lt;b&gt;Application Gateway vNet&lt;br&gt;&lt;/b&gt;&lt;/font&gt;&lt;/p&gt;&lt;/div&gt;" tags="Background" id="nlEW3K9Ex5rDqI_QTZeK-114">
          <mxCell style="verticalAlign=bottom;align=right;overflow=width;vsdxID=11877;fillColor=#feffff;gradientColor=none;shape=stencil(nZBLDoAgDERP0z3SIyjew0SURgSD+Lu9kMZoXLhwN9O+tukAlrNpJg1SzDH4QW/URgNYgZTkjA4UkwJUgGXng+6DX1zLfmoymdXo17xh5zmRJ6Q42BWCfc2oJfdAr+Yv+AP9Cb7OJ3H/2JG1HNGz/84klThPVCc=);dashed=1;dashPattern=1.00 2.00;strokeColor=#6b859a;points=[[1,0.5,0],[0.5,0,0],[0.5,0.5,0],[0.5,0.5,0]];labelBackgroundColor=none;rounded=0;html=1;whiteSpace=wrap;strokeWidth=2;" vertex="1" parent="1">
            <mxGeometry x="216" y="184" width="240" height="240" as="geometry" />
          </mxCell>
        </UserObject>
        <UserObject label="&lt;div style=&quot;font-size: 1px&quot;&gt;&lt;p style=&quot;text-align:right;margin-left:0;margin-right:0;margin-top:0px;margin-bottom:0px;text-indent:0;vertical-align:bottom;direction:ltr;&quot;&gt;&lt;font style=&quot;font-size:14.11px;font-family:Segoe UI Semibold;color:#6b859a;direction:ltr;letter-spacing:0px;line-height:120%;opacity:1&quot;&gt;&lt;b&gt;AppGateway&lt;/b&gt;&lt;/font&gt;&lt;font style=&quot;font-size:14.11px;font-family:Segoe UI Semibold;color:#6b859a;direction:ltr;letter-spacing:0px;line-height:120%;opacity:1&quot;&gt;&lt;b&gt;&lt;br&gt;&lt;/b&gt;&lt;/font&gt;&lt;/p&gt;&lt;/div&gt;" tags="Background" id="nlEW3K9Ex5rDqI_QTZeK-78">
          <mxCell style="verticalAlign=bottom;align=right;overflow=width;vsdxID=11912;fillColor=#f2f2f2;gradientColor=none;shape=stencil(nZBLDoAgDERP0z3SIyjew0SURgSD+Lu9kMZoXLhwN9O+tukAlrNpJg1SzDH4QW/URgNYgZTkjA4UkwJUgGXng+6DX1zLfmoymdXo17xh5zmRJ6Q42BWCfc2oJfdAr+Yv+AP9Cb7OJ3H/2JG1HNGz/84klThPVCc=);dashed=1;dashPattern=1.00 2.00;strokeColor=#6b859a;points=[[1,0.5,0],[0.5,0,0],[0.5,0.5,0],[0.5,0.5,0]];labelBackgroundColor=none;rounded=0;html=1;whiteSpace=wrap;strokeWidth=2;" vertex="1" parent="1">
            <mxGeometry x="234" y="213" width="200" height="180" as="geometry" />
          </mxCell>
        </UserObject>
        <UserObject label="&lt;div style=&quot;font-size: 1px&quot;&gt;&lt;/div&gt;" tags="Background" id="nlEW3K9Ex5rDqI_QTZeK-1">
          <mxCell style="verticalAlign=middle;align=center;overflow=width;vsdxID=9974;fillColor=#ffffff;gradientColor=none;shape=stencil(nZBLDoAgDERP0z3SIyjew0SURgSD+Lu9kMZoXLhwN9O+tukAlrNpJg1SzDH4QW/URgNYgZTkjA4UkwJUgGXng+6DX1zLfmoymdXo17xh5zmRJ6Q42BWCfc2oJfdAr+Yv+AP9Cb7OJ3H/2JG1HNGz/84klThPVCc=);strokeColor=#6b859a;points=[[1,0.5,0],[0.5,0,0],[0.5,0.5,0],[0.5,0.5,0]];labelBackgroundColor=none;rounded=0;html=1;whiteSpace=wrap;" vertex="1" parent="1">
            <mxGeometry x="254" y="86" width="160" height="60" as="geometry" />
          </mxCell>
        </UserObject>
        <UserObject label="&lt;div style=&quot;font-size: 1px&quot;&gt;&lt;p style=&quot;text-align:right;margin-left:0;margin-right:0;margin-top:0px;margin-bottom:0px;text-indent:0;vertical-align:middle;direction:ltr;&quot;&gt;&lt;font style=&quot;font-size:14.11px;font-family:Segoe UI Semibold;color:#6b859a;direction:ltr;letter-spacing:0px;line-height:120%;opacity:1&quot;&gt;&lt;b&gt;WAF Policy&lt;/b&gt;&lt;/font&gt;&lt;font style=&quot;font-size:14.11px;font-family:Segoe UI Semibold;color:#6b859a;direction:ltr;letter-spacing:0px;line-height:120%;opacity:1&quot;&gt;&lt;b&gt;&lt;br/&gt;&lt;/b&gt;&lt;/font&gt;&lt;/p&gt;&lt;/div&gt;" tags="Background" id="nlEW3K9Ex5rDqI_QTZeK-2">
          <mxCell style="verticalAlign=middle;align=right;overflow=width;vsdxID=9975;fillColor=#b1dafb;gradientColor=none;shape=stencil(nZBLDoAgDERP0z3SIyjew0SURgSD+Lu9kMZoXLhwN9O+tukAlrNpJg1SzDH4QW/URgNYgZTkjA4UkwJUgGXng+6DX1zLfmoymdXo17xh5zmRJ6Q42BWCfc2oJfdAr+Yv+AP9Cb7OJ3H/2JG1HNGz/84klThPVCc=);strokeColor=#6b859a;points=[];labelBackgroundColor=none;rounded=0;html=1;whiteSpace=wrap;" vertex="1" parent="1">
            <mxGeometry x="254" y="26" width="160" height="60" as="geometry" />
          </mxCell>
        </UserObject>
        <UserObject label="" tags="Background" id="nlEW3K9Ex5rDqI_QTZeK-3">
          <mxCell style="vsdxID=20;fillColor=#ffffff;gradientColor=none;image;aspect=fixed;image=data:image/png,iVBORw0KGgoAAAANSUhEUgAAAZIAAAGXCAYAAACZT9ZJAAAAAXNSR0IArs4c6QAAAARnQU1BAACxjwv8YQUAAAAJcEhZcwAADsMAAA7DAcdvqGQAAF/4SURBVHhe7d3n2xzFme/x8yec3Wt37d2za6/Xu+t1TgSDCQaMSCJnBBIgchBZgAADDpiogIRyepRzlgDJApFFDiIKgcKT48w8UULS1qnfzPRMd8/dMx2qq7tn7hdfX9AmiBmpPqqq7ur/I8T/chzHcZzvyIscl6S2Ne4TRgve6bX0l+czYtTatLgXrbF2j6WUtdW57pb98bm0mPd2b6EtX/aLDxv3Ftp34KCgflwcVyuRFzkuDvXuOyi2Ne0TW3cOiIXv9InJr/SK+9alxchVaXHm1HZx5pR2cUa2NkunEw1Gk62dZqk126lGk3KdQnSyvYmt4qSJLeKi2W3irtVd8seYEnPf6hFzZIwNVwuRFzlOZ1+07hObv+iXg2+feEBCcbeE4mwJxVlEWUCMYgaJuUFEJ8ruXNUlnticySLzQcNe0dK9n4HhEh95kePCqLX7gHivfq9Y9G6feHRTt7hjRVqcM61D1i7ONpJAGFUjJCc+Y+33+e7IApMWC9/tzgJDfX4cF9fIixynoo+b9okVH/SJPz/bLYbWdYpzJRooh4c5DZDk8YgrJLmas52Q75pFHWLslox47rM+8WX7PsaFi23kRY7zGvYz3tq1V8x/u0+MWpMW503vKGQAEndICojEBJITJuQ6Pt/Jk1rE7Ss7xew3e8QnzQwLF5/Iixznpvfr94nZW/vErctS4nwJBjIDwpCohcTccbKTJCwPbEiJ1dt6xe6ubxgWLrLIixxHleo/IF7cPiDGvtgrrpjTJeHoLADiBMm5SGLBkKiHxNL4ZnFRXasY/WJGbN7eJ3r2HmBYOG2RFznOaGfHN2LB2/1i5KqMuGBGZ7EsIgxJnCD53fgmSyPXdMrZSo/o7GNUuHAjL3K1HfCo29onblqcEhdKNJAFERQBJBZEEENSFhJ0bL7rl3aIpe/3iOYM327MqY+8yNVeuyQecyQeN5vwMGdHhILEjog7SNrjB4nEodogMTpGduXCdjFzazfvq3DKIi9ytVFjer+Y86bEY0lKXCSBMKoFSOyIBIHkpIRBcszTxa5b0iFWfdTDeypcoMiLXPX2zYGDYsv2AfGHtd3i4pkSDtnlc1Ni+Ly0GLG0R9y2vFdcvSCjDpI8Hl4hsSPCkIQDCTpahn/fQ8+lxNZd/QwK5znyIld9YfYx4/U+MXxeSlw9PyPB6BMPrB8Qf3p+X0kPPrtXAtNVFpIcIgyJakgKiGiGpFijOHN6i5j8erfYxUtfnMvIi1x1hNnHS5h9rOsRNyzuFnev6SfhoLplWa8LSIqIKIFE4hAGJH6PR6EgsSMSZ0jsiLiFBB2V747VneLlHTxL4cpHXuSSXbr/gJj7Zr+4bmFG3LGiT/zxub0kFuXC3zNkVm5WYkEkBEjss5FEQZJFxB8kVkTiCclR43KdN6tFrPyoh08x5sjIi1wy29W5X0x5pU9cKwEZtY5etvLSXav6EgCJFRGVkNgRCRcS2/5IzCD5bb6TJjeLcS9nRBPfRsyZIi9yyerDhn3isY094qp5eIFTcEDMXSn/mSohsSKiHhI7IrGCJA9IGJD8TgkkNkQISMz94dku8XEzn1TMMSSJ7uUvB8TIFRkxtC6VnT1QEAQNM5tYQiIRSRIknu/YSgAkR+a7aXmHeK9+gEGp4ciLXHzDBvqzn/SLGxelxaWzurL9YYP3PRAvXb+42xcksTkeBeUBSQwkEoekQFIAZVmHeJdBqcnIi1w8e/nLveK2pZkCIEbYE6EAUBVuB75Y/nsMRChI7Ii4gyQ+T7UHg8SKSNiQ2BGJCyRHjm0UR4xtEDcua2dQaizyIhev3tm9T4xc0S0um5WScCArJLi7SsXmerluXd7rHZI8HkmApICIAkjsiIQOSRaR6CE5Ig+JEYNSO5EXuXj0afM34v41EpDZqSwiFCRABOHJdAoAVeF24GFzUq6XtYJAYkdENSRWRGyQSBySCYkVEbeQFBFRDwn6jewGCcr2Nn4RVzVHXuSibUfbN+KR53pygBiVmY0Y3bnK/QOHfhq5ul85JG5mI+FCQi9ruYXE762/biGxI5JESIz+tDElOvr4tuFqjLzIRRMeJJz2ap8YagYkj4gbSHD3lp+HD7101fxMoiAJ9WFEWa1CYkfEDSTomAmN4pnXMqKbD4msqsiLnN5wJ9baj/rFdQvSWUT8QoJuXtpDAqCq+7O3A+PtiOUhCfWOLeR2NoLygCiHJIuIOkgKiIQESRYRlEckCkjQ4bJTpzaLhe91MyZVEnmR0xceJrx7ZXcBkKCQDJF/Tei3Ay/qLotI6JBIRMKGxI6IakjsiGiDJA9IOJBYESkHyeFjcl1Q1yJe38lneSU98iIXfu09B8STm3pLAClBBLlGpEtcMrNLXLsg3NuBsXyGI+jLQiKhKA+J+zu2KEhc74+gPCCRQpIHRBckdkR8QSJxoBBRCQk6TPbH51Oio5f3T5IaeZELLyxjLXl3QAyfW1zGsmdHxCskSPVRKfZuX9kXCiQVEUFeIMnjER4kVkQoSDzvj3iERM2tv9FCgk6Y2CTWftLDmCQw8iIXTrgbi1rGsqcCkislVBQAKhs6JxUIEl+zEaQYkgIiCiCxI+ILEomDfkjcL2uRkBD7IxQkWUQQAUmuenHlolaxs5NvF05S5EVObcYshEKDyg0k5RAxwhHyFACqGrW23zUkVkSig8SOCDUbiTMkdkRyy1rxhMSOiFtI0G/HN4gJr2bEvv18bH0SIi9y6nI7CzGyIIJ8zEaM8M8L+3bg65d0lyKiBRIrIhQkKu/YoiDhZ0jCg+TQfOfXtYhtTXzCcNwjL3LB8zoLMbIjEgQSdKMc6CkAVJXdeJ/VaYVEQlEeknhvtFOQ2BFhSKx5ufXXjEglSLKNrhcTXuHZSZwjL3LB8joLMacakkvk3xv27cB4hW9YkFgQQRogsSNCQpJFRB0kBURCgiSLCJJoBIXEjog6SHKIIDskh8jOm90iPuLZSSwjL3L+wixk/lv9JBBusiCCAiJycb5rQr4dGF29IO0JEl+zEeQFkjwekUOSx8MJEdWQ2BEpQCLBSAIkdkQMSNCRTzeIWW+lGZOYRV7kvNeU3i8eXt9DAuE2OyKqIEGYNVAAqApHzV80s1PT/og/SKyI5CCxI+INEisiFCSel7XiAonEgULEGRIrIm4hKSLiDhKjKxbynV1xirzIeQvvCTEfb+InCyJIMSRXzE2RAKjsjpW9NbPRXl23/uYgcTMbiQsk6Ag5O5n/boYxiUHkRc5dffsOFg5ZDBoFiSpEcnWK25b3kgCoDGCVh4Q32v1CYkdEHSTq79iiIMkigvKIBIXk1/nuWNPBh0BGHHmRq1yQDXUqOyJhQHLJ7K7sEhQFgKrwzz9veqdnSCoigjRAYkeEhMTL/gjKA+IFEjsiJCQuN9qjgMSOSJiQoHNnt4jPW3kjPqrIi1z5cFJvuSNOvGZBBBUQUQVJZzbsYYT9Wl40YlmvAyI5SHzNRpAXSPJ4JAGSAiIaISkikkxIzIgY/WZcvVjzMR+xEkXkRc45VUtZ5uyIhDEbASLZZnSKu1eHu/GOhtZ1hQSJFRG3kFgRyUFSQCQkSKLYaKcgySKCJBphQBL2MyR2RJwg+dVTe7I98rcufuZEc+RFji50RJAGSC6b3RX6E+84PgVLXHZEfEMiEaEgIRFBEgtnSGK60a4AEjsiBUgkGCogsSOiDpIcIigoJOjiuS2iMfMNY6Ip8iJXWhiIoCCIoMqQFJe1DEjQTSE/8Y5uXNJTAkkBERMkFRFBXpa1UB6QMCCJYqOdgiTpp/5SkNgRoSAZNKlZnDS5RQye1iaGzJO/DmQ3LOsWgyY3WzA5dkKDeI3fdaIl8iJXDHdmOb03REVBIKmMSA4SOyLZ5P83al24R81nj0+Rsx8SEomDkXJI8nh4hcQNIjo22ilI7IjkZiMqIAm4PyLzC0kRkRwkx05oEqdMaREX1nWISyUOw+anxC0re7ONWuduOXbI3C4LJr+ULf2A38QYduRFLhdePqXyzix7FkSQAyL+IaFnI+hCmY5nS+5ZO1BAJE6QFBCJGJICIiZI7Ig4Q2JFJBJIPN76e+qU1uxM4rJ5KXHlwrS4VSKh+mHZW1b0iiPGNWQRMXryxRRjEmLkRS53e2/QhwwrZUckjNlIARITIgYk6LaQj5pH1yzMBINEAhLn/RFHSPJ40IhEB0kRkXAgGTS5RZw5o00MlTOKm5b1ZLF4OOQ9OXv3rx/ILnWZMbl9dTtvwocUebHWw5PqKm/vpbIgggqIqIXEaTZihCWusJ8teUj+8y+Y0aFnNoLygIQBSWjLWiFBonKj3Q7JcROaxOCpOTCuXdIt7lgd/m9KvHbJ3C4LJhfObeGHF0OIvFjL+Tn63U92RILORpAdETeQoKs1HOqI5QstkOTx8AqJG0RChUTi4AWS0DbaHSA5fVqbuLCuUwxflBG3yRnGgxvC3V9T2YgVveI3+aWuX8hOndbE53QpjrxYi+Hk3nEvhLepbs6CCCogonc2YnSB7K5VGpa45CDkHxIrIpFAonh/xC0kdkRChUSicdKkFnHBrA5xlfy+4jjL8JOx1AVIfvHkHnH0+Abx9p4BxkRR5MVaK+w7s+zZEfEyG0GVIXE/GzEguUT+c8N+tgT//CGzu8KbjaA8Hl4Q0QGJFZEcJAVETJDYESEhUbjRfpz8d581o01cviAlbluVrJmGn86b3ZGFBB0+tl688GUfY6Ig8mItBUTuXxPenVn2LIigAiJqZyMFSCQSbiBB1y8O/9mS+9fl7uI6WyKRTEi8I1IKiZ79EQqS06a2ZW+RvXFpt7gv5Nu/4xruFjMw+blsNR+rEjjyYq0UB0TUz0ZykHiZjZgbtTb8wWXEsp5wIMnj4RUSV4jI4rI/4mWj/eQpreKSuk5x8/Keqp9teOl6CemvRtdnIUFLPuDj6INEXqyF8IzI7csy5IAfVs6IhDQb8QHJsDnhP1uChs5NqUUE5fGgEclBUkDEKyQBlrWCQFKCiKzc/gie+L6orkPcsLRHPBDyK5aT3h2r+sQhYxrymOwWk17jNy/6jbxY7UWOCLJAUhkR5BYSv4hcMD3XLRreW/KgHOTOm9GhEZLo9kcoSAqImCCxI0JCkkWkCMnv5b/rwtmd4rol3eLeteEfxllt3buuXxwxrjELCXqcH1z0FXmxmtvduV/cvFgvIsgtIk6QuEUkKCTnAxP5x3/Q8LvZO1b2qYMkj0e4kKhBJCgkp09tE1cuSIuRa6rjjqqo+8OGAXH8M01ZSH4me+C5TsbEY+TFag2IhP20OpUFEVQGEgoR5BYSt4ggOyIGJOdP7xBXztOzxHWV/D68IKIaEveIRAvJeTM7xPVy1lGrG+Rhh4dmT5nakoWEMfEeebEaSwIiTpC4RUTFbMSABN0uZwzULzqV4ZbgC2d1uoaERATl8fCCSCwgkUhQkAyS/15skuOIEd3Hi9RyZ81sK2LyLGPiNvJitYU9kSiWs5AzIu5mIxQiiILE92wE2RBB+GfpWOLCwY5nT+vwD0kej3AhsSLiCEkeD6+QAA/82IbKmSA2ganPidPTxXM7c5g8sVv8aVMXY+Ii8mI1FcXGupEFEWSBpDIiyC0iqmcjRpdrOCEY4d0llRBRDYkrRGRhLmvhxzV8YZo3ymPW+XUdWUh+KpvId3NVjLxYLSUFESdIKEQQBYnq2Qg6L9+IpT3kLzbVXVrX5X02gvJ4uEIESRy8zUbUQnLK5Jbsuzbu5s3yWHfG9NYsJIxJ5ciL1VC6PzpEkDMi8ZuNVILkfPnX4dW51C82lT2wfkCcI/998VvWCg7JyfLffdncLl62SlinmzBZ/D4/tOgUeTHp6X5i3Z4FEWSBxD8iiIIkzNmI0RA5Wwj7LC5024peEhHVkLhCBAVAZJD8e4fM6cq+aIn6b+WSkRmTVdv4bYtU5MUklyREnCChAEEUImHPRsxdtyj84+bRlfPS7hBBeTxcIeIVEp+zkUskHjgGhu+2qp5OnNycheQnss3bexkTW+TFpPZh4wHxuMZTfO2VR0T1bMQbIoiCxC0i6NxpHcpfi0qFe/rx1HtFSPJ4uIZE4hAWJHjBE47J52NJqjP8nAQmgOTXY/aIDxv5CHpz5MUktqP9gPiz/MKvW1jbS1pOkFCIeIHkXCQhuXhWZ/YXFfWLTWV48A4PKnqZjbiFxBUiiEDEDgmWrnQ8b8NFnxmTI56uF43pbxiTfOTFpNXSfVD8ZWPuy8YdRtQgH3ZeEPEKCYVIFLMRo6sXpEt+kYVRbr/EPSRlEfEKSZnZyJnT2sWN8ucZzgujftxc9QZMjp3QlMXkpKmN/NrefOTFJNXee1D8dVPxi75jRR850IdZmIggCpIoZiPm7tC0gXz1wjQNSR4P15BIHIJAgr8Gd13dpWFpj4t3960fEIeNa8hicsn8FrF3/8Gax4S8mJRS/QfF6BetX/K98hc6NdiHVXlESiGhAEEUIIhCJMrZiBFuCX5QwxIXNqyH1HVaESEgsSLiDIkdEFSCCMojcu4Mnn1wpeHAzF+Orhc/fmKXGLGyjSGhLiahgf3/K8a/XPoFY+pJDfhh5BURJ0goQFC4iPifjSC85XCopneX4JiWc6a3a52NYLP/Vr5tlyvTDct6xI8f35Xt0Rdq+ygV8mLc23/wf8WkV+kvFw2rC/9wxhJEkAUSd4ggChFEQUIh4gQJhYiK2QgQMRqxTM9ge9fq/uxT70E22d1AggMk71zNm+ecuy6b31XAZM7btfv0O3kxzgGRBe/uJ79Uo6vnh/tEe1SIxGk2YoS/Bu9hp74H1d20tCe0TXY8+3EP739wPjpjRlsBk1e+7qtJTMiLcW7j5wfIL9PcjYvDu3Mrbog4QUIhono2kqtd21PvaNi8lDdIJBLlIBk6t0uM4nd8cAHCcvpxzzRlITl83B7RUIO3BZMX49o7e8rPRIxuWRbOQ4nRIILygLhEBFGQUIg4QeJmNgJE0Nmy6xbreeodm+/Yv6ARcQcJ/rrLJUj3r2dAODXhLYuHja0XP5KYXDyvuebu5CIvxrFdnQfEI6bbfMs1cpX6W4ArI1IKCQWIEYUIohBRsaQV1mwEiBjhvSLU96E6HO6Y3S/xgQgA0fGOFa72umdtv/j5U3uymIza0MGQxC3c5jtmyzfkl0eFp6IpDPzmB5FykFCAIC+IOEHiBREnSChEkB0RCyRyYD9fzhR03SZ7+8peT5BcPLuT90C4wN26qlfcvKKH7JK5neKESc1ZSNCiGjotmLwYp7C5PvV194ighxXeApwkRBAFSQ4Rd7MRd0taOUjMs5GzJSRoaF0X+Z2E0bWLu50RyUNy/swOvguLK4Rj/Ees6BU3Lu/JvgkR4b0jAOCEibl+Nbq+cNqvER4+tGdssBsZgBj9cvRu8UGNnMlFXoxTS953ty9i74o5wW8Bjg4RlAeEgIQCBFGIhLWkZZ+NGOF8rBuWdJPfSRhho5+C5MypbeJWOVhQfw9XfQEHdOWitJwZyF9XshMlDuio8U3iF0/uET8vtLuQ8X5249W6xlsRKyLyhBURChL0+ykNNXGMCnkxLr36tT9E0DUBbwHWhQiiEHGajVCAoBJEkAMiTpAEnY0gQIJGalpGwh0zeBmWgcjpEpDrJWR8hHv1hZkl3u0yRCJx7sx2MWhyszh8bIP45VN7SvoFkmiYcwOJHRFHSCQSbiD5oWzYohaGJKo+b618m2+5bl7i/xbguCLiCZICInpnI0a4s0rXfgnQwhPvVy5IZ2Gh/houGeFOultW9oor5Hc5ZF6XOGlyizj2mSbx69H12X4lgbDnBpIiIkVILIggCUQYkPzwsV1i6hupqsaEvBh1PXu9ba5T3b7c3y3AqhFBFCAoTERULGkhChIKEWSGBA2Z3altZsAzkOQFMPDu+tOntYmTJRiHSCiMDDjMeUIE5RFxBYnEQTUkWUSQhOQXT+0Wn7XurVpMyItRN+dt/0taRn4Ob4wVIjZIKECQF0ScIPGypOVmNmLu6oV6ni/h4h2Wpa5alBHnzW4Xv5/ULA4dUy8OlTggMyDhQ+K8rOUWErf7I2ZI0GnTG6v2+RLyYpS9tCPYkpaRlzu3ygFSRKQUEEThYUQBgkoRQSZA/CKCCogEm42oQATPeqA7+MVPNRVOCsA+FTa8T5nSKg4b0yCrz5YFxEjiEBokJkTcQuIGkSwkEgc/kKC/bq7Owx3Ji1HVkDpgebdI0K6cW/nOrbggEtmSFpJQuIGkgIgLSAxEEDbD8RAh9R1xye7BDQNixIoecdn8lBg8rU0c9XSTOFzCgXKAFBEJBMlT7iDxtayFJBA6IPkf2Zu7+6sOE/JiFOWOhQ+2L2Kv0plbtYKIEyRhLmmZIUFDZunbL+HCDXDgzqlBk1vEb8ZKNIzygFgRKUJiQQRJIFwhInODiG9IJA6hQWJDBB01ob7qbgkmL0bRig+D74vYc3pbIgkIsgCSIESQR0QQhQiiIPE7Gyk0pV0M1/SKXk5tOPpj+MK0OGtGmzhyXGMWD3O+IJE4xGlZyy0kfvdHzJCg29dU18uwyIu6+6BBPSJo1NrSo1LKAZJ8REohoQBBOmcjQOSMbG3Z5wCo74qLT1iuumFptzh/Vrs4/pkmcYREwsiOSAGSPCBJhcQNIllIJA7BIdmZbcVH3VWDCXlRZ/Z3rqsMR5uXBQSVIOIdEEQBgnQgEsWSFnKLSA6Stmz4a3AWGvV9cdF1x+o+cem8LnHqlNbsrOOIsagIiBMiqDwkzvsjoSCCSESKkFgQQRKIKCA5bOxu0d67vyowIS/qbOab4cxGjPCSKxIQZAEkIkRskFCAGKlABFGIIAqSAiI2SOyAGFGQGLMRowtmdvB+ScRh1nGdnHWcPbM9u0EOPMzZEXGCJHbLWiiPiBWS4MtaniEhESlC8gPZjStaGZKguX2/SJBuXNztCEhQRCg8jKoBEZVLWvaumKfnfe9cMTMev5VYGNkROZKYjZSFJA9ILCAxIeIWEteIKNofMUOCNm3vTTwm5EUd4en1JzbTP+FVdufKvgqI0IAgCg8jCg8jP4iUg6QEEVRApBQSChCkdUkLOUCC40zQzcv4UMWwAx7XSzzOseHhiIjM7bIWNRuxQuK8rOUakiq67deMiBmS307Yk/gHFcmLOvJ7qq/X8D5xlbMQROFhFFdEkDtEUB4QAhIKEeQWETMk+Ov4JVPqM+Nx1NON4iiJA3IPiRURL5BEOhtBeURcQSJxiAMk6JHNnQyJ14IeyOil3IZ72hUgiILDHIWHkS5EkrCkVWk2ctGsTnH3Wn7RlKoMPHAq7tHAw5zEwTUkNbaspRqS8ogUITEjku3RneL9BL+7hLwYZnjwMOiBjF67Zl5GIsGI2POCiBMkJYigMrMR/P8631dSzeXw6JF4dEg8mrKABEJElsRlrSCQqEQkKCRnzkruWVzkxTDb8Km+2YgRjpSn4DCi0DBHwWEu1oggiYRnRGyQUIggL4hcOqeLj0pR0J2r+8VFszvE78Y35wExUgGJFREvkEQ6G0EkIkVILIggCYReSOhlLQOS/5ZNSehx8+TFsMJZWtQvjLC7a1U/CQii4DBHwWGuOhBBJkD8IoIISM6d3s4PIgYMs49r5Uzu5Mmt4hiJBgqCCCqBJMnLWiiPiBUSfctaBUhMiLiCRAJiQPLTJ3cl8tkS8mJY6dpgt4ffBXsFBFFwGNGAoHgggihEEIVIWEtaV85L8cumApSdfdTJ2ceE5gIgKiApQUTGy1oOiIR0268ZEiBidEMCny0hL4bVxs+jmZGgoXXF/REKDXMUHOZoQJANEQmBOkQ8zkYkEFQqEEGVEMFDhyPlIEh9F1z5MPu4Ts4+cAT7seMlGkYSDBqSHCLBIbEi4gWSeM5GipBYEEESCNeQSByCQ1J5Wctc0jbeyYth9eyn9C8cHV23MEOiYY+Cw1w5QBKPiA0SChBUggjKQ4L//5pFGX5y3UfG7OM4OfsAIEblESlCEgSR6lzWcoBE4hAbSCQaFCTYeKfG0LhGXgyrP6yLbp389hV9JBxGFBr2yiFSAIRAhMLDSDkiSCJRGRFkAkQBIpfM6uRztDxmzD5wxpUZD3M6IKm1ZS3VkJRHpAiJBRFEIIL+S7bu057EYEJeDKPNnw+IK+ZEd4w4BjgKEEShYY4GBCUDEUQhompJ66ypHeKmpfyUupfw8/FiOfs4Xs4+fiehQDoQQSWQeJ2NIBKRIiS+EZF5QgSRiBQhsSCCJA4qEQkLkiPHJ+eJd/Ki6r45cFDctDh3eCJegUv9wtLRZXUpT4AgGhDEiACRC+V/991reRbitpFr+sT5cuZm4GFOByQliMjUnfSbAEgkDrFZ1kI2QMyQoKdfScbtwORF1c17q79w1hXe50z9AtPR9Yu6lQFiQUQikFhEbJBQgKASRGRXzkvzHVkuu31VnzhnRrs4bnxxBuIHESskOUSCQ2JFxAkSt7MR5BuSBC5rFSAxIeIKEgkFBYmBCPrJk7tEWwJuByYvqizdfyD77nQDkpHyFxT1C01Hd67qJ9GwRwOCKs9CdCOCKEBQWIjgHey38nMhrhqxvEecIT9nbKAjPEQYBBLVs5Ga2mRHEgfXiGi+7ZeCBN29vp0hMc9G0Iil0Q1AOCCQgsOIxgMRsxAkEXALCIoWEWQCxIYIohBBZkQunt3FG+oVwh1rNy7rEadMbi0Aks0rIkiCESYksdpkl6mBJILZCMojYoXE/7JWsa/Fpy17Y40JeVFV2dnInNyBiUbXL4z2nKVhdSlfiJQDJCmIWCCRKJijAEFmRK5eyLf1liv79PnijDh5UosVkHxRzkZQCSRhb7IjiQOFCCqBJMnLWsgLJBIIL5BcvzzeDymSF1U17005G8kDYhyaeNW8DPmLUFfXL8p4AoQRyS1l3RnhkmTce0DOdIcvTItBk1qzd2GhEkgSMhspC0keENeQSBx4WSvobGSn+E8JyX/+Nd6zEvKiijAbwe2+9lN3sbxF/WLU1V1yQCwPCCIAQRIAL4iQgCALIqWAIAoPIwoQFAYil9Z18TtDHMIMZOi8lPj9My0FQEhEZLpmI94g8YAIygPihAiKHpI4zUYUQSIRQXGelZAXVYTZiIGHvShPgMXtxzQeKORZCEoQItfzce8Vu6Su04IICYkHRJCO2UjcNtlralkLSSDcQZJDxCiusxLyYtBys5HiLMTePWuiPYPpirlpEx5WRCyAIDn4q0Sk3FIWovAwogBBrhCxQUIBYnTejA5+NsRDZkxKEJGFPhtBEgddsxErJHGajRQhsSCCJA6uEdGwrEVBUopIcVnLKK6zEvJi0MrNRhCOK6F+QerqRvk7bTsgKmYhyAmQpCCCu7L4nSHeMzApgaQaZiOIRKQIiQURJHGgEEHhQVKFy1o2SFAcZyXkxSBRsxHz0+To2oXRbrjjVFovgCAKDXMkIMgFIhQc5ihAkB9EykEydC4f+R4kYGKHJIzZSFBIkvokO6rlZS2j62I4KyEvBunZT/pL4LB3uYSG+oWoK7zH/RL547AA4oAIhYY9EhBkQaQUEETBYY4CBKlG5KoF0Z2DVk1ZMIl4NoJKIAlhNoJ0QFLNy1peIPm+LG6zEvKi33Cm1g2L0iQe9qL+ne/weemygCAKDXMkHsgCiD9EvB17gvwjcvMyPnBRZQYmSZmNlIUkD0g5SIIgUp2b7OUhcYcIvawFRFDcZiXkRb/97XPnE3bt3R3xS49GyMGTwgNRaNgjAUEJQgT/Hn4+JJyAiVtEUBJmI1ZIop+NxBcSFctaxdt+KUh+9MTOWJ3BRV7026jV7l8edfPSaH8XjA1lpYCgBCFygZyJ3buW32AYZjgm3g0kVTMbQRIHChGkGpIiIkVILIggiYNrRCJ6CBGVQlKKiBkS9Oe/dVYfJG/v3kuigcxPkhtdNS/6NXm8ftctIIjEAykABFF4GKlE5JLZXeJBfshQS2ZMKESQltmIzBMiKA+Ia0gkDGHMRhAva1kRQb8csys27yshL/rpsY09JBhOXRrxE+7opiXdJBj2SDyMEobI5fNS2ZsNqM+DCycDkyCIBJ2N6LrlV9eyVpDZCAoPkvCXtczNfCse7yshL3ptV+d+EotKRX2K7L1rB0g4zJF4IJeAIAoOcxQeRioRwYGC1OfAhR/exR4EEreIIAoSt4ggHbOR0DfZkcTBNSIJW9YyOnFqffVAMvmV3PlVXrtzZfRr9JfO7vIGCHKJCIWGuXL7IUgVImfLv4/fHxJ9dkySPBtBQSDxhAgyIeIKEolDNS9rof/It/GL6N/tTl70Ut++g45HsztlPFV+w+Loz3LCU+6qAUEUHOZ0IoKDKqn/dk5/Zkz0zUZKIaEQQapnI0g1JEVEipBYEEESB7eIIDWQ6F3WMiC5fFFL8iHZ8HH5tw4WjyIpDWdeUb/YdIZzv9wCogwRObg7RQOCGBEvxfnEYmDCsxEPkOQBKYUk2bMRVApJKSKVIPmPR74Wn0T8gCJ50Uv3rsq934OCwk1x2PjFU+4kIEglIEgO7k6VA4QRcR9OLT5lSqu4dE4X+f/HoSwmEoxKkLhFBFGQ1MJshIKEQgTFCZJSRLwvawER9KdN0d4KTF50GzbZKRzc1ynuicGzDNctyrgAJDpEygHCiBQbta5fnDejXQya2CJORM+0xBuT2UVMKESino1YIUnIbARJHFwj4nKTHZWHJJplLQOSw8ftjvRWYPKi22a83kfg4FTxkERzty6LfhMYy1t2QFTNQhAFhzlGJHi5V9y2WhAxGjo3/phQkLhFBFGQuEUE+ZqNIIlDUEgcEUEmRFxBInGotWUtozWfdCcPEpyrhQf6vKCBLIckynDmFfULTHdYnlMOCJIDu1M0IMj7UhbCv++eGnuPyF3yNwHGLIRCxOiqiE+cLteFEpOyiCAJQ3SzEQdIJAxeEPF8yy8iESlCYkEESRzcIoLUQKJoNuJzWQt9Txblpjt50U1btg+QUJizo0EFeOKwT3LtgowEojIgiELDHgWHuXKA+EWklo48eVj+nLlyQboASAERAhK8ChfFGZOL6zqdIZEw1NJsBMV9NuIKEomDjmUtAxIU1flb5EU3/WFtxjUWlmaUFvUBjgjvKKHQMEeBYa/SLASVQ8QCCJJIMCLWMAs5U342ZkQKkJgAsUOSwyS+x+VfviDFsxGZ29kIBQmFCFINSRGRIiQWRJDEgUIElUJSiogfSMa+3JUcSBrT+2kkzBFgOBWH50kwK8KP2w8gQ+d0iWmvZsS0V4rNeSMt3vm6J9vK93PXppq6dVmqPCISCEbEGs4Hu3x+qgQQt4jkahY3xfjY/GuXZFwjgihI3CKCqmY2giQOrhGJ2yZ7wGWtXF+Jo5/ZnRxIlr7XT4LgJzzDEfWLroyuWZAui8jtcvAHGG982S2+bO4V7ale0d3dI+v2Hf4Ze9p6JTjdok7i89D6LkaEaKSchZw+tS0wIugE2Y0xxuT6pd0WRJI0G0FBIAkyG9G1rOV2NuIeklJE/EKCtnzVqx0T8mKlbl+WJlGolPkJcntxeIAMdzuZAcFMAzOLzxp7RSoDNGgMVJeROH3d0itWvpcRI5Z1kYicN6N2EMk+F5K/I4uq3L4IhYhRnDG5ZUVv9m6uap2NIEdI8oCUg8SCCJI4uEUEqYEkvNlIEEjuWtcWf0iyy1py4C8XBUWl7lgZ3S2reFvjTUt7sktbmHX87ZNMfrZBD/S665KIfbSnVzy4zorKsHmpqsYES1l4QdRJNjjMuZuN5BCxQ4K/7raV8T2DDD+2301o9oBI9c1GrJBEPxtxBYnEwRMkEgZViKCfjd6p/ZkS8mK5sKxFQRC0ayO4o+ZBCcj1+YcRV72fEQ0dwZapdARUNn6cEcPnd4gzJSboivnp7Iu6qP/GpIalrDOmtilApAiJGZET5ACN8NfHGZO7VveJY22YUIggt4igWpiNINWQFBEpQmJBBEkcKERQKSSliASF5N9lupe3yIvlum1ZmoQgaDimhPqFFEZYRsN+yKhVndm9jqD7HFG1u61XTH45nQNlSru4Sv43xfmMKbfduLQnu5QVNiLoeBn+ujhjgtMffj+xiAmNCM9GXCGS0E125AWSOzUvb5EXncKyFoWA3wpPk+cbFfL7Se6X//zh8nfv90pAsAdBDc5JrC2VA+UMiQmWvK5emM4u11GfQZzDUtaQOV1ZQMohgrwsaVkQQSZEjAZJuEauie+JAPi1AUwoRLxssKPYzkYQiUgREgsiSOJAIYJISCQMbiBxOxspgUTiEOWyFhBBWN6ixvCwIi86FWRZy44G1YgQj0sZsbRHjFrdVVWA2MuBkpKgtGVvIcYR+dRnEcfuXtMvzpI/ZgMRXbORJGHy4IYBcfKU1hJIkj4bQVHNRvxBomY2EtayltEbu/u0YUJedMrNshYFhNuuCOG4FMxCbluWym5WU4NvNdbc2SMeXNeZBQWHFsZ9ucu8lBUVIkYnJgCTwdPaipDU0GwkMCQSBr+IhAFJEETcQHLfs+3xg6QhvZ8c/JU1HRCpPS4Fs5C5WzMiQwy2tdBr2zPiolkd4pzp7eKuGJweYA/HnJiXsqJG5Lh8J01qEffF+OYFfG5nTs9hQiGCHBFBeUBKIckhkojZCJI4uEUEBYGkiEgREreIoFJIShHxAkklRNCh43bFD5KVH/bRAPhJokGFc65UnFyLWch9a9KipbN2ZiFOpTI9YszmlDhdzk6uWRSfs6awH4LDFsNCxAkSChBkIGJ0yuRWcV/Ie3ZBAibny98kuEUE8WykMiKoPCSKZiMhbbJb+stX4o1depa3yItUD2/oplGolA0Lc8VDEo06xNULgg12t6/sE89uowfVWu6T+h5xoRx4LpoV/cOf2Dg2bu11gwjysrnuhIgXSNDJMccE4eRg14igPCBOiPBspBwiZSCROOha1nKLyHdlD2/qiA8kvfsOiiGzHd4iKAGoVCkYRtbjSBD+mX6Xt+5enXsinBpIuW7RkeoRdyzPPX9ye0S3u965uk+cNsW6H6IGkSIkKhA5bnyz+N34JnGq/LFiX4L6b4lLQ+enykJSeUmrCIkFESRh4NlIBUSQxMEtIjqWtQxIjp+8Jz6QvPbVAAmEORoKc6VoOHWHj0FuzOZMdhmHGkA5cz1i/ptpMXhym7hO82GZNy/rLdlUrwRJlIgY4YyvuGMyfGGaRAS5RSRes5EiJBZEkMSBQgQFgcT3bARJINxCEuSARleQSEAMSFB9+pvQMSEv2nvm5V45wFM42KNh8JqX5S08L7H+w9wASQ+cHNWHu3vEaRKTazVhMnxBmgQEUYCgQIggiYI/RKyQGJg8EPO733CqMTbgSxBxCYkFESRhSPxsRNktv0VI3CKCSiEpRcQLJF5mI0ZLP8zEA5Kr53eRA77qjFN2z3e5vIUjTl78jB4oucrtaO4RF8zsCBWT3J1ZKRIQRAGCVG2uB52NGB0rO2lyS+z3TLJHqsgfK89G8pBIGPwiYoVE72wEqYLk6qXhvzmRvGhue+s35KAfNAMNpyotb41a2y/e3UkPkJz78MzJBTPbs+88pz7nID2UvTOrgwQEUYAgJ0SQEyRhIoIwOKMTJzbH+jkThJsZBkn0eDZSiogXSNzORjxBImFwA4kqRNBPnwr/KXfyorkl7xaPVvcThYSbriqzvIW7jmrpAcOwAyaXz8UylzpMcndmld7ea0QBgrKIIImEfkScZyPmTpA/vrhj8of8g4s6EEFuEUG1OhuJYlnLKOzbgMmL5h5aj3eZ00gYURAEzWl5C3siO/nOLOV1ZXrEMEWY5O7MKr2914gCxCgSRGRuETHC8e63xvigR4RlxXPlbLMcIiWQSBScEEFuEUGOiKA8IE6IBJ2NoCCQhDIb8brJjrxAIsFwgmR0yK/gJS8afXPgoLh4Vic50Icd3v53m+0dJYDliyZGJKzaUz0S8HZxbYAHF/EczymTIkAEycG9HCKIQsTNkpa9Y2TA5+bl8X05lhFeT8yzERoRVO2zke/ITp7eEB0kHzftIwf5MAIc2aYVu2Ku9RW8eP85NQBy6sIy16mTWsWI5d5/tx0HRDzPRnwigrcXGl2/NP6Y4C2TvxnXaEEEuUUEuUUEOSKC8oA4IRLH2UgJJBKHMGYjKAxIUGbgQGiYkBeNFr/bRw76QaPQoDpvemfhOPSXPueZiK5wNxduDb7fw3lTOhEpgUSC4B8Rb0tadkSM8BwH9bnEqdtX9Ynfyh/rYRQiSMIQ3WzEAREkYaAQQUEQQeUh8T4bQaWQlCLiBIlqRJAByXNf9EQDyZ+f6y5BwEsFMBABhZtuW9En1nzYRw54XHi9+VUme2sw1tmpQclcTSGC8ngYHZ3v8gXxx2TUun5x/MQcJm4RQW4RQY6IIBKRMpBIGGI3G0ESCHeI0LMRXZAYiKBHX+yMBpJhc5z3RyxIIAIBFT22MUMOdFz4rfkgJa6sMDgmEhGZEyKIQgQ5zUYMSBDOvqI+pziFO7pOmdLiGhIKkV8/Ve2zkSIkbhFBJCQSBk+IoBAguXBek35IdnZ8Qw7sujpHdmldV/Z8KGqQ43TUI25b3pG9C4sakPQggvwhgihEVOyLUIgc/XRjtvMkJm5mclH28LN7xTkz2/0hIvOMCCIRKQOJhEHnbMQKSXXNRtB/Pfa1fkjWbusjB/iwAhz2cGItPcBxusKdXBfJgdF+YnAYiKCkI4KOkp01oy32mKBh81Pal7SskCRvNuIJEgmDJ0RQSJCgj1sGQsGEvIge29RNDvhBo8Cgqns9TQ5snP7e340j6DsLg09cECkHiTMiNCQUIKjSvogdEiBiNDgBJwej65ZkxGFjG1whgtwigsojUgYSCUPSZyNx2WQvtkNMfzOc50nIi2j4vC4SArdROLjtlqVdNftWw7g2YUtK3LCkO1pEkAQhakRKISlFJNu4xkQcQ49uWdkrjpA/3kqQUIggR0RQHpBSSKp8NhKDW37N/ZuE5MaV4Zy7RV5M9R9QjoP72kVDOy9pxS3Afv6MjqpDBFGIID9LWmZE0G9lv5/YnD0yhhrA49Tda/rF0fK/2XE2onSDvQwkEgaejZQiUgKJxMErJEdM2K0Pkvfq9xIDfBi1lzTl5RQ5kHHRhyUuChBE4WEUKSIoIkQMSAxMcDIvNYDHKdzRdfLkFhISChHkiAjKA1IKSbxnIyWQSBySPBvBsta//TlXW89+5ZiQF5d/0CcHdWrg91spGObONtWV5tlInLt3delpvhQeRtWLSBESCyLIhojRsfLHkwRM0AV1HVZIeDZCIoJKISlFxAmS8oiogwSzEQOSF3f06oFk9As9coCnQKCicaAyg0G15XN+ZiTuNXVYZyUUHkaJRQRJKFQiYnSM/HGNWBHvwx6NsAl/6NgGx9kIBQiiZiOuEEESBgoRFAQR5HY2QiESdDbiDxLviKBSSIqIoGdeU/9gInnx5qVdJARuooCo2NR2MWJpp8hk6MGLi1dzt+ZeVEXhYaQLEaQKEeRlScsJESdI8PZCdJT8ZyQFEzxDhP82t5BUXtIqQkIhUuuzkaCQlCJinY2gMDbcSy707jtID/YqkmA4xc+MJKfOdA+Jh1E8EKEhofAwUr0vYs+AxGh4gFOWdYZ9k0GTmysigsJY0kIGHBfWNYqRa5rFmBdaxcZPOsXrX3aRP0fN7WxJiy1fdIm6re3iqc2t4tJ58nsav8eESBESCpHEz0ZskJw8rT58SL5o3Ucj4DYCiUphNkL9BODi2xw5K0kaIogCBOlGJNvYxuyRKkl4cBGdL3+swWYj5Ze0KEgGT2sQf3quRaz7qFO0d6ld+v5od0pMfbVNXLukUfz8qRwmFCQUIoiERMLgCRGkCJJSREpnI0Z79x9UiknJhTUf9ZGDfVidJXttOz98mLTss5IsIA6IlAKCkoZIERILIkii4BkR2RESkiPGNojBU5PxrAm6Nv/woiMkJkCsiJSBRIJhRuSIcXvEA+uaxbY9+u7gBFIL3m4X586utyDiZTYSvwcQaUj+Vab6CfeSC5Nf6SUH/KABDKpLZvPeSFIzZiWJRwRJKKJAxOj4Z5rEPWv7ycE7bt29pk8cPaGpFJGykJSfjQCQEyfXi0Vvd5A/13T2RWNa3LGqKbTZCNIxG7FvspshWfJhJlxI/vhshoSgUhQSbtryGd+pldRau3o8LmWh+CNSCon6JS0zIkZ4GHDEivi/JAth3+S0aa1KZiNHyhnI9NfalS9dBe2dnSkxbEGDO0RCmI2UQCJxCLqsBUTQQxs7woXkmoVd5IAfVjwbSXYPrW+PFhFZohCRUYig3+RLwkuyjC6Z20XORtwgcujYPeKxTS2iqSPev5l8/uNOMXjanvKQSBjcIIKino2gSxeqPVLe8id4Rzs12IfVzNf4Kfak91lDd6SI5GYj3hBBgRBBEgR/iNCQGIgYXZCA95oYXb+0Wxw6pqEiJGZE7lnTnL2bivo5Fdfmv9Uujnh6dykiymYj6iApNxtBvxy7MzxIGlL7yQE/rHY0018Yl5wwozx7WhsjYooCBLlFxOjUqa3ZJSRq8I5b2Dc5Sn6ulWYjgybXi/d2Jvc3kFh+u2dtkxUSCYMbRFAcZiNGKu/csvzJ1p0D5IAftDOJsMlOfVFc8qp7o8sBkRwgyUOkCIlXRBCFiNO+CKIQQYfLjp/YLH/3noxNeKAH/JwQuXhOY+yXsdw2+dU2JbORMCCpNBsx+rJjbziQ4NZfCoJyUUi4afm7fMtvtbSzpduER/Uj4nk24hORbGMa5L+7Sdy6MhlPwqOL53aVQHLbyqbYbaYH7bmPO8UvR5fOSChEkOrZCCqFRMLhEhKVZ25Z/mTSK73koB9GTR30l8MlLxwxf/FsRoREREYBgihAkBkRc1cl5El4hH2TQ8bUZxHBhjr186YaeufrlDh6wq6KkEQ5G3GCZM67qXAgefjZDDnoq+7Kee384qoqa+V7qfKISASSgkgJJBID/4h42xdxQuSwfHi6nBq449g1S9Ji5fvVv4T9dUtanDptdwxmI+6Xtf6f7JEX1B3eaPmTqxd2kQO/76bQLXiT79aqtrY3ZWhAkEQgboigqBBBFCKIQsQMCRo8Lf6b8Pet6xVbd9TOr3Ms2w2dX+8DEX+QuEWkHCQ3KDy80fIneAMeCYI5AganznBo2x5+CLHaSmewT5KHI06IoDwcnhFBEgQ/iATdF3FC5LAx9dmOn9gkRq2L5yb8yDV9YvOnlQ9TrLaAySlyZuINkmhmI+j0WQ3qIcGpvxQGVBQO1trKhnOaqC+CS3Y3L21zRISCwxwJCIoxIigKRNChsiPljxHvWqcG86i6V+JWtzX6Y06i6vPGtDh83C6XiPiDhELE7S2/Zkh+ofBZksIf1Kf2y0HePQZ+u2JuG/kFcMlvxXtd6hCRgCQSERkFCKIAQe4QKUICRIwOHxefTXgst92zpno31t322pdd4kdP7IzlbAQZkPy/P+1QD8m2xn3kwK+6+Vt5f6Ra296Y8YQICQjKAhI9IuUgoQBBqjbXSyGxzkYKjc51YV20m/APPbtXXL+4pepu8fXbzDfaYz0bMSDZk/pGCSaFP3h5Rz858Kvu/V38E61a60p3MyISBSoKERQIEZSH5BBZlE/CX7e0S2xv4mfDzD2woSnWsxH0bkO/WkhWf9RLDvx+O92hPa0MSTUXf0SKkMQCEZTHIwgiRjhB+LZVfeRgH1Z3rqmtO7TchtnZBXX1sZ2NoBcUPZRY+IO6N2lIKAyChN+1Uh86Vx3dtbKNxMOIBAQlGJHwNteLkLhBxAgvnrp8gZ4ThLGkNedNPu7IKTxj8sPHd2qdjVSEJI8IWvyBmveSFP5g7JZucuBXHR8bX93Ner2TBASRgCBGxBciTpCgX8sGT2sLfanrykUdvC9SoQfWN5kQ8QcJhUjQ2Qga/6qahxILf/DghjQ58KvsgbW1e1tgrbRxW5cPRGhAEIWHkS5EUNiIlELisKQlgXCDiFGYS114CdeM19rJnwdcscb2jDh07C7fiCAKkiB7I+hfZKqebi/8wai14UMyb2vtPaRUa31Sn3EHCEoyIjIKEEQBYhQIESRxcIuI0aHy33n5ghSJQZDOmtnMsxGXTXylzTckFCIqZiOA5NY1bWohuX5xJzn4e20w1eRcmz9hSKq9ls5uPYhIIKj0IUJDQuFh5G5JSy0i6FdP7cmGV+OqWurCoYy1cI6WqgDuoWN3ekYEUZComI2g8+aoebq98AfDF3TSCDiVx8FLW7/kOzuqvVb5C6YsIhX2QxCFh1GcEUEUIMgdIkVIVCHy66eKkCD896tY6rp8AT946LWJr7TGajaCTpy6Ry0kl83pIAd/lTEk1V8q000DghgRV4ggCpEgsxFzON49yFIXZiPrP+LZiNcwKzl+0i7XiCAKElWzkX/505fi8PG71EJCDfyqw5PP1AfMVU+OkFRAhILDXM0igiQIqhBBv8znd6mLZyP+W/Juu2tIKERUzkYSDAk/+VrtZTIZB0RoQBAFh7lqQ6QUEv2IGP1WfjZelrowG5n7Jt996TfMSn761NcVEUEUJCpnI8ohwcm/1MDvpdNctLuVIamFzIAEQSQLCJJAUFGAMCLuETH6lfx3DXO51HXOrDaxs4V/HQfplpWNsZiNoO/9Vc3Bjdn/aeneTw78qmvh1+vWRMVZSPIR8fOsCAobEUQhYt9cN0chgn6BntwjTprcUnapC0+xX7ukifzOOfc9+3FHLGYj6J9ldhT8lP0ffZDwHkktFCYiVkBijAjK4+EXER2zkSwiSEKC8ON2Wuq6ZnGGb/lV1CFjd3qajVCIOEHidjaiHJLPWvaRA7+3WivGeyS1EQWHOQoPo9pApAhJnBAx+rns0nldJZCcNr1VNPFvBpV0y4pGEhHkFhIKEeQFEaWQfNS4lxz4VXVqPoak+ktnMiQeiILDnPulrOpABDlBQgGCKEAQBQiiAEHlEDE6aXJzYakLy1rnz24gv3POe3PfbAuEiBMkXmcjaE9qX2BMsv/jFxIDCLd9Ws+QVHupND0joeAwx4jkAFGJCKIQQRQidkh+/uRu+d9UL25d1Ztd1vrz83zbr6rwSt4gkFCIIK+IKIeEGviVNqlVvLGdj0ip9ihIKDiMyi1loSQjUgqJekR8b66jPB5OiBj9TPbb8Y1iHT+EqLQjnt7pCxEnSPzMRuIDiQTCbQxJ9Yc1dDeAIEYknwShHCKIRERGAYIoQJAfRIy27eGTKVR2ydz6sohkb/cNeTaiHhJi4Ffd+g/4dzTV3s7mVGBESgFBDoAgCQEjEi4iiPq+Of/dt74p8tlI7CE5hejxjfxEbLX3/s4UCYc5ZbMQJCFIOiLlIKEAQRQgiAIEOSFihaSIiB2S06fzRrvqJr7cGvlsJFRIKARUdO3CNvID5aqnVe+1k3ggpUtZSEJQCRBEAoKqDBFEIYIqI2KFxIwIunpRI/l9c/7Dg4lhzUaKiFSA5I9fiszAATWQfCghoQb+MOJX7VZ3T/6tLXxEJAJBEfFz7AlKLCIoj4dXRH72xG5xz5pm8vvm/Pfh7hSJiJejUFCQ2QggsaPgp+z/fNX+DTnoh1FrJz/QVM0Nm9tMIyJxoCoFBAVHhMLDKFJEkATBDyK67tCyI4Ie28S3/qoOtwBTkOicjXxbJSQ4IoUa9MPoqyZ+lqRaw2yzBJCaQ6QISbUg8lPZmBdaye+c8x/e5a4aEa+zkdhCcnKFNm7jO7eqtab2dABEygCCJALVjggiEZFRgCAKEOSEiBWSIiJOkAARNP21dvI754JlhUSiQUBCIYIoSLzORpRC0tV3gBz0w+ih9bzhXq298nlnERGJg1PVjgiKEhFUGRErJBQiZkgWvc13XIaRGZIoZiNKIUHUoB9WvOFenT2xqTW0pSxGxCMiKI9HUETQHH6ZVSgFno1UQISExITIz0Z/nVxI8NAa9aFyyQ1vRjxlcjMJCCoHSCVEKDjMUXhkKwMIovAwijMiiAIEhYEI4j0S9eFtiVHPRg59WvGrds+Y2kYO+r6aSHdSvo18Zk/V1dieJgFB5RApAQRJBBgRGhBEAYICI4IIRBiScCreteUeEaRqNoKOmrhbLSTD5naQg7+bDCCca7H04Fr+SVltvfxZhwtAkBpESDyMGJGKiJCQSDCcILmbnyNRngFJFBvsRufMaVALyVAJCY0AlRUGP6XS/DxJNfXExtYKiBQBIRGRALgBBJF4GCUcEZW3+ZaDxAsi6Ial/Ipd1b3wWWdkS1ohQtJODvhh9fFu3ieplrpSGS2zEETika/cpjqi8DBiRGhA0E9kZ8/ks7ZUN/31NoUb7BUgIRBBt6xuVQvJXau7yAE/rP76LC9vVUtbv+yMNSIUHOaSigjSgQj69Zg95HfP+e+hZxtLEHGCJIzZCBqhGpK/bkyTA76qBhF1dPFT7tXQrctaTHCUAkIiIgd/t4hQcJjTg0gREBQbRFAej7AQMdrZwr9eVXb5wnpXiCC3iJCQEIAY/Xlzh1pIJr/aQwLgFAWD1175jO9NT3ptnek8HDQiJYAgOfi7AQRRcBRSsZSF8nDUFCJI4kABYmSHZOMn/GI6lZ04eZcrSMKajXxL9sSWTrWQzHmrhxzsw+zmJby8lfQ2ftRGApIIRPJo2HNCpAQQJDHwjYiMAgRReBh5RYSERMLgZTaC+BZgdeGcLTeIoLBmI4Bk0QdptZA8/1kfOdiH3ddN/LucpIaHEC+d430WEhSRWGyqIwlBrSCCLpvH7yRR1cr3270hgkoQsULiFRG0eUevWkje3j1ADvRhN/FF/l1OUntnR4cFEDeIUGiYo+AolAWEEbEjUg4SVYj8+Ild4lejd2efxqZ+LnDu+7S+RzywvqMiJBQiTrOREkSQCQ4KEbSteUAtJDvavyEH+qCdWK5ncmGdnfrAufhWnI3omYUEWcpCSUAEUYCgKBFBP358V7aXvuAVhKCt/nBA/On5feKaJRnx/Ue/JhFB5RGpAEkeDSozJK09+9VCgqPkKQgQiYCb8lBUasYrfCJw0vqivlPZLASReOQLMgtBjEgOkKCIoJGr+Qn3oD2+eW8WEjRq3YA4YnyDMyIoj4gVkuCzEWTGIEiWP/Ey+KuOZyXJ6p5VTTQgSA7+bhGh4DDHiOTLwxEGIogCBJkRQYeP5eWtIG1v7CkgYu6yBSnxH6bZiVtESEgkEBQiyIzIIYoObESWP7lwVhs5yOto+su8V5KUdjR2VgQkMCIVAEEUHEYFQJBEomYRQRIECg8jChBkR8Ro+ft8277fNn3aT0KCMDs5dmKTOHSc/LkmC3s2curM+nAgGbGskxzkw+r3tnhWEv+wN3LVgjwcYQCCQpyFIE+ISASSjoifJS0KEKPr+dwt3z31Qm5/xE03rejJ3uQQxmwEXb64KRxInticIQd8P9mRcNP9q1vID5+LT1s+aXNEhELDHgmHqaiWspKOCAmJBMEXInLwogBBP8r37k4+K89rXzXTy1rleujZveK06a15RCrMRiQOFCDIjgi6a72a41GQ5U8WvttDDvA6+2QXT5vjWmcqLU6alN8bkYO+UkQCLmUhv4iUAIIkAoyINQMRxLMS743b0kdi4SbMTn7w+E5nRJDEwS0i3/rjdjFlq5qn2pHlT17Y3k8O7uHVXNKV85qzyyfUF8FF26QtzZHMQhAFh1EBECSRiByRMseeIAoQFDUiiAIEmREx4lmJ+/zMRuw9sH5AHCd/I6diNvJPEpINn3WHAwmeJaEHfD+VIuG2DR/wxnvc2tHQYQFECSJZQMJbykJ+EaHgMEcCgmoEEXTGjHry5wpX2hObnTfZvXbLyh5x3bJucfWSjPihnEH6mY0Aku3te8OBpGfvAXJgV90JLmpo5Qef4lJXKi2G1DWpAwRpX8pCtY0IogBBFCCIAgT9MN/aD3kpulLv7+olQVARZilHjm8gEUFOiPzbX9Q9Q4JKLpw1vZUc/N1EgeC3K+Y1Zwcw6ovh9Pboc81KEVE2C0ESiMqIFAEhEZEIuEGExMNI8Sm+cUYEGZCcMZ1nJZV6ZJO62YhTmJ385KndFRBBOUiOn6LmXe1GJRduWtZBDuyhNoFu/Ga+iyvqXvu8PTGzEMSI0FGAIAoQROFhZCDyw8dy8azEuWc/9r/B7qeL5naK7zzyFQFIEZF/eni7GKbw1l9UcuHPG9P0YB8kAgm3vf0lH58SVY1tXWLQxCYSDXMkGraCbqijIIiUAIIkAkERofAwovAwigUiLu/QMmdHBB0/cQ+/9IoozCWtct2xqlf8QH63dkgMRJCqF1oZlVxY9kGPUgi8dryt06e0iCY5oFFfFBde6XRGDJ9Pw2GOQsOSSkCQBKIyIIgRQRQgSBUi6H9k581u4KNTTDW094hHNhbP1NLd/etzZ3gVISnORtDKbZlwIXlr9wA5wKvKDoWbLpjZIto6+FZDXeH267tW0HAYkWiYywISw6UsJBFgROgoQFA5RIxGreUDHVFXuluM9vAEe5idPrNNfOeRHRZEkKrj441KLuDOLQoAp6iBP4yuW9AkOvkd76GXlohMeLGdxMOIhMOcAkCQckQkAG4AQRQeRhQeRhQeRnFABFGAIAoQVEAE5QGhIPmfx3aK2VvbyZ9XtdTsN8LfXPfSvesGxPGTmyyQ7N1/MFxI0HkzW8nBPOpGrWrOLrlQXx6npmXv5tZ1L5jV4ROQZC9lIQoPIwoPIwoPo1pABP38qV1iy+e1uRTdnuqRkMZjJkJ1O/ZOHt+p/I4tRF58YEOKHMij6jhTjz/PT76H1YaPrJuDBiYkGrZUAIK8z0KQGkQoOAr5fEYEJRUR5AUR9APZkeN3iy8aa2v1AHsik1+Nbk/Ebdg7uWNNux5Ipr3RQw7oYWbGolJP/41nJqrbsI2+w+R8iQkFRyFNsxBUDpBKiFBwmCPxMGJEXCNidO7setHYURu/RnH8yegXS3/txLUJr6X0QPLqV/3kYB8kCoQg3cvLXCV98dJL4tPnn/fc3Jl/E38a86JjV9y3Xgy+bVVpt6KVZTvNRaca3UJ3CtmK8o0odnKFTirToBHLfXei0c2l/b5MJ9i7qXLHl+m4G5eR/c5Hx1paWugYogvuXi5eXfUc+XOuWvrbsk3ikbH0r5s4NvLRTWLjir+JXa+8TLZ/r79NePLi7q5vSAwQNajr7IRnWsTINX3irGlt4p4VTaIrVdt3c72/dKmoO+ss8ci3vy3++H//L8dxXODmDB4s3pk5Qwyk3c1eyIvo9Gmt5EAeSeOLnTejozBFGzY/Ja5d0Cg6u2oPk4ZPPxUTDjmE/EnAcRynotE/+EEWFMoIc+RFdNvKTnpQDzMTGEa/K9SU7aZl3Zb1vltX9oqLZzWLnY21c0zDjjfeEI995zvkF89xHKe6qUcfLerffssRFPIimv1mDz3YB8kEhDk7Fk5hae3h50rvjHhgw15x7ox28cK26j+ba9vatbyMxXGc9jDufLx8GYlJyQWj9xv20hgYmSBwqgiEOygqdeHszhJEzF21MC0ee7ZJdFXpUldXe7t46r//m/ySOY7jdPT5urUlmFj+xNy+AwfFoIktcgCnQDCiB/ywsi9rUd25ul9ct6hVfN1YfU/Ybnz4YfKL5TiO09Xj3/2uaN/+hQUTCx72bljaQQ7oUeS0rOXUiOU9YsbLLVUzO2n+6ite0uI4LhYtHjLEPSQTXsmQg7qujjV1UV3xbi0v3b82I974PPmv7t386KPkF8pxHBdFqd27CpiU4GHula/6yQFeVWYoKoW7sygo3PbMC51iT3Ny7+xaPGwY+WVyHMdFkXmvpAQPczgJmAKgUhQEQTphYounZa1y1b3WkUhQ+JkRjuPi1Afz57mDBA1f2E4O7jrzu6xVriVvpURDS3JAGfuTn5BfJsdxXBR5guSpFzPk4K6zoMta5Zr7ekZ8tqtdpNPxPq2UIeE4Lk55guTNXQPk4B52x+T7/URvd2sFaeOHHeKrhnjOUhgSjuPilCdI8DzJiXIwpwb7IBlQOPZ0rkvqyj+EGEYTtvSJF7YBlfZIbx/GKzu37ekVaz/qF3/575+SXybHcVwUeYIE3bWmk8TAHIlBufJQVOr2VX3kYK+zOa+nxWuftYs9TeEvgX3R2CNe/LxfzNpqnYX98b8YEo7j4pNnSJa830NjYI+AIEjHP9NiGUzj0mObBsQzL7SKOa82iE0fNIod9W1il0QGlTuJGAgZfx166eNmsfKtBvHn9Q3iolkN2bcRHjOhWdy1uhRPhoTjuDjlGZLmzH5yoA+7i2arv1tLRQ9uGMj++I6SA7858/vNvWR/6yCFCUPCcVyc8gwJumB2a8lAH0ZHm7plRXh3awXpqkWZwHggOyDm7JgwJBzHxSlfkIx/OUMO/F4zQ1GuY8fru1vLa4MmtZAwuIlCwykzJl4gWf3tb4v3vvMdLkD4DKnPtlIfnz1E7Lrkai5A83/8c/KzpZr5j/9Ifn+c+179t38jP9tK+YJk667cco4fFPx0foUj46MKsyQKiHJRSFRsbKM4Qnb0+KYsJl4geelf/1U0ff/7XIDwGVKfbaVS194hxB0PcwFafeiR5GdLtfBb3yK/P859X3zve+RnWylfkOA24FOmtJCDfvDkgGnr+qWVj4yPorNntpNY2CNxqFQejyPGNlgCJg//J0OiM4YkuhgSvWmFBD2yKS0HeQqCcpUiUSncTowNbWogjzK8iZFCw4jEwU0OgJgb9e8/Jr9MKoYkeAxJdDEketMOydZd/eTAH7SjbJ0xrY0cyKPu0nldWvEwdy9DojWGJLoYEr1phyS3vNVMYkBlB8Jt1yzJkAN5lGHj/7gJTTQKbvOIhzmGRG8MSXQxJHrTDgl6ZFOKHPxVdt+6+C1r3bC0m8ahUgHw+I0phkRvDEl0MSR6iwSSrbv6ycHfd3KwNTd4Sis5kEfdqfLHRUJBpQgPcwyJ3hiS6GJI9BYJJFjeOmN6C42CkRxM/Xb5/BQ5kEcZbr8lwTAXAA9E4WGOIdEbQxJdDIneIoEEPflCmkTAT/bN63vW9pODeZRdWNdJwhE2HuYYEr0xJNHFkOgtMkjeqx8gUUB2GLyEd49QA3mU4Tbko57Ob7IHhANRSLiJIdEbQxJdDIneIoMEnT7N/zEhTuH2Wmowj7LhCzMSgGjwONwUQ6I3hiS6GBK9RQrJjK3dJAZBui3EV+r6DbMkCodKUTC4zQxItjEMie4YkuhiSPQWKSSdfftJDPx27IT4HdI4YkUPiYRTFApuo/Awx5DojSGJLoZEb5FCgu5d10mi4Cb75jXOsKIG8yg7a0YbCYYRBYKXSvBANkCMGBK9MSTRxZDoLXJIXtrRT6Lgp+tidkjj/RsGIsfDHEOiN4YkuhgSvUUOCcKmOwWD10bF7Gn2qxdjk53GwGt+8UCH5WNI9MaQRBdDordYQDJ9q8+jQ0ydHMOn2U+b2kqi4DYVeJhjSPTGkEQXQ6K3WEDS0befxMFLcbvtF7MjCodKqcbD3L3//iPyy6RiSILHkEQXQ6K3WECC7llHPPmNxpaWeybD+mDfrTG77ffyBSkSCntB4EAUGNbqCzEkemNIoosh0VtsIMGmu9+H9rJv/4vZbb+nTG4h4UDh44GKgDAk0cSQRBdDorfYQIKGzm8loagUbrGlBvOosi9rBYUD0VjYK8UDHZqPIdEbQxJdDIneYgXJio+8PbxndO2SeN32i2WtuOBhjiHRG0MSXQyJ3mIFCY6XHzzN+3Eicbvtd9DkFl9wIBoLe+7xMMeQ6I0hiS6GRG+xggQteq+bxMK8VGQOgzY1mEfVPWv6SSCcoqGg8odHodEMie4YkuhiSPQWO0hwK/AxExpJNKiGzI3Xbb+XzUuRYJijobBHw4FIKKgkHuYYEr0xJNHFkOgtdpCgsS+lSTSo4nbb7/ETm33CgWg4EAkFlQ0PdEg+hkRvDEl0MSR6iyUkmJVQaNjDcyZxuu0Xy1o0EE7RaBiRUFCZ0LDjYY4h0RtDEl0Mid5iCQm6e20niYe506fF67ZfLGvRYJij0TAioaCSMLjBwxxDojeGJLoYEr3FFpLtbftKb5+1deXCNDmgRxWWtUKDA0kMvOJhjiHRG0MSXQyJ3mILCRopZyUlgMjB2ejO1X3kgB5Ft6/qI6GgIpGgkoO/UxQUlWJI9MaQRBdDordYQ/IFZiUmOMwd9XQTOaBH1SVzO4OhYSQHfCoKBrf9Ot89DInWGJLoYkj0FmtI0Mg1clZCQHLm9Hjtjxw7oUkpHIhCwW0GHuYYEr0xJNHFkOgt9pA0ZfaLo8c3lkASp/0RLGuRSDglB3UqCgSvUYAYMSR6Y0iiiyHRW+whQaO3pOXv9q2b2HE6FuXiuZ00GEZyEHeKwsBrFBpUDIneGJLoYkj0lghIOnr3i6PkrMRABMtI1IAeVcfIH48bNBAFgZ8oKCrFkOiNIYkuhkRviYAEmWcl585sJwf0KLp7TT8JhhGFgJ8oGFz3VL341VN7GBLNMSTRxZDoLTGQ5GYlgKReXLMkQw7qUXTFgrRyNIxIFNyWx8OcF0ie/vu/F9P+8R+5AOEzpD7bSs34r/8RdT/8CReg0f/8L+RnS/Xk3/0d+f1x7pv0D/9AfraV0g4JmvpGJgvJqHX95KAeRadObSUR8BMJgpcIPMx5gYTjOC7sIoFk3/6D4syZ8Tk2/uFn94rDxjaQKLiNBMFLFfAwx5BwHBenIoEELXw3PrORW1b2kjiUi8TAax7wMMeQcBwXpyKDZMn7+8lBPYountNJYmFEIuAzCgYv/VLGkHAcF6cig2RH+wFyUI+iEyY2hwaH31mHOeBhjiHhOC5ORQYJWvFh9LOS+9cP0AAEiMLAa3Y8zDEkHMfFqUgh6dl7UDz14jfkAK+rqxdnSAw8pWDWgSg0qBgSjuPiVKSQoI+bo13iOntmO42DU4rQMKKgqBRDwnFcnIocEjTvnehmJb8Z10iDYRQDOMz9QsaQcBwXp2IBCZa4Ht1ED/RhhhdqhQ0HokDwEvAwx5BwHBenYgEJemeP/o33ofO6yIE/aBQGXrPj8Ysni3mBJC5HpDz6d39H/vjK9fg/fYs8NoPzFvXZOvXMP/wD+f1x7hvj80gd6rvTHY71oX5slYoNJGj2W3qXuAZNbiYh8BoFgZ/K4WHOCyRxObQRv8CoH1+58BObOsiP8xb12Tr13ne+Q35/nPvW/Yv788HMUd+d7nDQKPVjq1SsIEn1HxR/2UgP+qrDsSiHjPG3jEUh4KcSOBABhz2GhPMS9dk6xZAEjyExDepR9erXepa4bljaTSJhjwIgSH7xMPq5jCHhvER9tk4xJMFjSEwDepRNeyP8Ja7zZ3dEBweyAVEu4GGOIeG8RH22TjEkwWNITIN5lLV0h7/EddTTjeTAr6KgcCA7HuYYEs5L1GfrFEMSPIbENJhH3Us7wntQ8d51/SQAfiPhQHLQ9xKFRrHdhRgSzkvUZ+sUQxI8hsQ0kEfd/oP/Kya/RkMQtCsXpUkQ3ESCYSQHfC/RYJgr4mGOIeG8RH22TjEkwWNITAN5HGpIhTMrOWtGG4kEFQkGkgO9n2gwzNF4GP1MxpBwXqI+W6cYkuAxJKZBPC69sF09Jsc90+QNDSQHeT/RWNij0TACHuYYEs5L1GfrFEMSPIbENIDHJSxxTXpV3V1ceH6kIhpIDvB+o7EwR4Nhzo6HOYaE8xL12TrFkASPITEN4HFqV6e6Wcltq/qUgYFoKKhoMMxRaFDd812GhHMf9dk6xZAEjyExDd5xa8OnajAZNj9FguA2GgkqGgtzFBKOPVGMIeG8RH22TjEkwWNITAN33MIS15gtwZe4Bk9vI4FwikaCisbCHomEUyY8jH4qY0g4L1GfrVMMSfAYEtPAHcdUvOf9qPFNAcFANBJUJBDlssFh4GGOIeG8RH22TjEkwWNITIN2XPugwf9ZXH/YMOADDUQjQUXiUC4JQyU47DEknJeoz9YphiR4DIlpwI5zfjEZsaJXDvYUFOZoIJwicaiUxMArHuYYEs5L1GfrFEMSPIbENFjHPT+YYKNdOxpIDv5B4LDHkHBeoj5bpxiS4DEkpoE6CXnF5JSpLSQQTpEouEkO9lQUCl77iYwh4bxEfbZOMSTBY0hMg3RS2rrL/Z1cR4xrIMFAJAhuk4M7FQWBn4CHOYaE8xL12TrFkASPITEN0Elq0xd7STjMYaM9MBhGcjCnohDwkx0OewwJ5yXqs3WKIQkeQ2IanJPWvHf6SUCMblzeQ6NQKTlwO0Uh4DcKDKcYEs5L1GfrFEMSPIbENDAnsbEv9ZKIoEvnddFQmJODtFPU4B8kCgi3MSScl6jP1imGJHgMiWlQTmp/2khjgo12N2AgauBXEYWC1378+C5xN0PCeYj6bJ1iSILHkJgG5CQ3cm13CSSHjanXigaiIPAT8DDHkHBeoj5bpxiS4DEkpsE4ye3df1DcujJTQOS+9QPkQK8yCgC//fgJKxz2GBLOS9Rn6xRDEjyGxDQYJ73uvQfE1UtSWUiuW9pNDv5BogAIEgWGUwwJ5yXqs3WKIQkeQ2IaiKuhxvQ3YtiCLnHRnE4SAy9Rg3+QKs06ysWQcF6iPlunGJLgMSSmQbha+rBxQBzxdAOJg1PUwK8iCgWv/UjGkHBeoj5bpxiS4DEkpgG4mnr16z6tYKAgMw5zgMMeQ8J5ifpsnWJIgseQmAbfamvVtm5ywFeVKjgQhYc5hoTzEvXZOsWQBI8hMQ281ZhKTCgA/EZhUS6GhPMS9dk6xZAEjyExDbrVmh9MVM42jCgg3MaQcF6iPlunGJLgMSSmAbeaK4dJGGggCgQ//VDGkHBeoj5bpxiS4DEkpsG22lspMaEGfFVRCPgJcNhjSDgvUZ+tUwxJ8BgS00BbC6nEhELAbxQe2R7LxZBwXqI+W6cYkuAxJKZBtlZa9H6GhKFc1OAfJBINozwe5hgSzkvUZ+sUQxI8hsQ0wNZS5WYm1MCvIhINRMBhzwskdf/0T9mf2FE35u//nvzxlevpf/2OeOn4U7iAUZ+tUwu/9S3y++Pc5+c3TYj67nT3/G+PI39slWJI8r3ydZ/45ejd5KCvIhINIwILp/5H5gUSjuO4sGNITL21p18cPm4PCYGXSCzM2XAoF+Cwx5BwHBenGBJbn7Xu9YwJiYU5Ofh7icLDHEPCcVycYkiIGtLfiBOnNJBoIBILc3Kw9xKFRWk7CzEkHMfFKYbEIWByzuwmGgpzcpD3E42FuSIc9hgSjuPiFENSJrwca9iilsBw0FBQ0XCY+4GMIeE4Lk4xJBXCa3sfer6TBMIpGgkqGgtzgMMeQ8JxXJxiSFxW93aaRAPRSFDRWNij8DDHkHAcF6cYEg+9ubtfHDZ2jxzsKSSoaCjsUViUiyHhOC5OMSQe+6pjnzh1eqMEwB8aiMKhYo8WY0g4jotTDImPsAk/dGEziQQVCYObTHig/87HkHAcF6cYkgD9dXNnqHCY8TDnBZK4HNqY5PAZUp9tpXAAHnUwHue+1YceSX62VDgnjPr+OPd98b3vkZ9tpRiSgG3a3isOHbubhsFNEoZKcNhjSPTGkEQXQ6I3hiTC8PDiBXObaCjsSQj84GGOIdEbQxJdDIneGJKIw/MmDz7fURENROHgJYZEbwxJdDEkemNIYtK6T3tyS11ywFeBhrn/yseQ6I0hiS6GRG8MSYzCLcJnzmokMfCagYc5hkRvDEl0MSR6Y0hiFpa6ntzSReJQLgoOewyJ3hiS6GJI9MaQxLT3GwfEydMaSDSMKCzKxZDojSGJLoZEbwxJjDPPTigYvMaQ6I0hiS6GRG8MSQLC7OR3k+pJHCr3tfhP9NevGRLNMSTRxZDojSFJSJm9B8Td69sJKOx9nc3AwxxDojeGJLoYEr0xJAnrpa/6iNlJHg4CD3MMid4YkuhiSPTGkCQw7J2Me6VL/PjJnSQYTjEkemNIoosh0RtDkuBwxMqVi1tINKgYEr0xJNHFkOiNIamCXvqqVxzx9G4SD/T9fCMZEq0xJNHFkOiNIamSsNz1xJYu8eMncstdBh7mGBK9MSTRxZDojSGpsnZ07BPXLW9lSGIQQxJdDIneGJIqDc+eXDK/mSGJMIYkuhgSvTEkVd7GL3rE4JkNDEkEMSTRxZDojSGpkZZ9lBH3/jtDojOGJLoYEr0xJDXUuJ/+jPwyqRiS4DEk0cWQ6I0hqaGe/hlDojOGJLoYEr0xJDUUQ6I3hiS6GBK9MSQ1FEOiN4YkuhgSvTEkNRRDojeGJLoYEr0xJDUUQ6I3hiS6GBK9MSQ1FEOiN4YkuhgSvTEkNRRDojeGJLoYEr0xJDUUQ6I3hiS6GBK9MSQ1FEOiN4YkuhgSvTEkNRRDojeGJLoYEr0xJDUUQ6I3hiS6GBK9MSQ1FEOiN4YkuhgSvTEkNRRDojeGJLoYEr0xJDUUQ6I3hiS6GBK9MSQ1FEOiN4YkuhgSvTEkNRRDojeGJLoYEr0xJDWUF0g4juPCjiFJYAwJx3FxiiFJYAwJx3FxiiFJYAwJx3FxiiFJYAwJx3FxiiFJYAwJx3Fx6vN1axmSpDXxsMPIL5PjOC6Kmj/6kCFJWouHDCG/TI7jON2N/sEPCoggy2DFxbdXx4wmv1CO4zjdbX74YYYkifW0tohHvv1t8kvlOI7T1ePf/a7AeGQenyyDFRfvnr/3XvKL5TiO09XHy5dZEEGWP+HiHc9KOI6LsuXDh5cggkoucPEOvxtgTDiO0x3uHLUvaRmVXODiX/3bb2XXKakvm+M4TnXrb79d7N87QCKCyItc/Evt3pX9HQL1pXMcx6kIv2Hd8bdNjoAYkRe55IRjCuYMHkz+JOA4jvManhHBc2sYWwbSqYqIIPIix3Ecx7mNvMhxHMdx7vrf//P/ARvw/QHCQ30RAAAAAElFTkSuQmCC;dashed=1;dashPattern=1.00 2.00;strokeColor=#9dbb61;points=[];labelBackgroundColor=none;rounded=0;html=1;whiteSpace=wrap;" vertex="1" parent="1">
            <mxGeometry x="265" y="35" width="40" height="41" as="geometry" />
          </mxCell>
        </UserObject>
        <UserObject label="&lt;div style=&quot;font-size: 1px&quot;&gt;&lt;p style=&quot;text-align:right;margin-left:0;margin-right:0;margin-top:0px;margin-bottom:0px;text-indent:0;vertical-align:bottom;direction:ltr;&quot;&gt;&lt;font style=&quot;font-size:14.11px;font-family:Segoe UI Semibold;color:#6b859a;direction:ltr;letter-spacing:0px;line-height:120%;opacity:1&quot;&gt;&lt;b&gt;Spoke vNet&lt;/b&gt;&lt;/font&gt;&lt;font style=&quot;font-size:14.11px;font-family:Segoe UI Semibold;color:#6b859a;direction:ltr;letter-spacing:0px;line-height:120%;opacity:1&quot;&gt;&lt;b&gt;&lt;br/&gt;&lt;/b&gt;&lt;/font&gt;&lt;/p&gt;&lt;/div&gt;" tags="Background" id="nlEW3K9Ex5rDqI_QTZeK-4">
          <mxCell style="verticalAlign=bottom;align=right;overflow=width;vsdxID=11810;fillColor=#feffff;gradientColor=none;shape=stencil(nZBLDoAgDERP0z3SIyjew0SURgSD+Lu9kMZoXLhwN9O+tukAlrNpJg1SzDH4QW/URgNYgZTkjA4UkwJUgGXng+6DX1zLfmoymdXo17xh5zmRJ6Q42BWCfc2oJfdAr+Yv+AP9Cb7OJ3H/2JG1HNGz/84klThPVCc=);dashed=1;dashPattern=1.00 2.00;strokeColor=#6b859a;points=[[1,0.5,0],[0.5,0,0],[0.5,0.5,0],[0.5,0.5,0]];labelBackgroundColor=none;rounded=0;html=1;whiteSpace=wrap;strokeWidth=2;" vertex="1" parent="1">
            <mxGeometry x="560" y="498" width="220" height="240" as="geometry" />
          </mxCell>
        </UserObject>
        <UserObject label="&lt;div style=&quot;font-size: 1px&quot;&gt;&lt;p style=&quot;text-align:right;margin-left:0;margin-right:0;margin-top:0px;margin-bottom:0px;text-indent:0;vertical-align:bottom;direction:ltr;&quot;&gt;&lt;font style=&quot;font-size:14.11px;font-family:Segoe UI Semibold;color:#6b859a;direction:ltr;letter-spacing:0px;line-height:120%;opacity:1&quot;&gt;&lt;b&gt;Subnet&lt;/b&gt;&lt;/font&gt;&lt;font style=&quot;font-size:14.11px;font-family:Segoe UI Semibold;color:#6b859a;direction:ltr;letter-spacing:0px;line-height:120%;opacity:1&quot;&gt;&lt;b&gt;&lt;br/&gt;&lt;/b&gt;&lt;/font&gt;&lt;/p&gt;&lt;/div&gt;" tags="Background" id="nlEW3K9Ex5rDqI_QTZeK-5">
          <mxCell style="verticalAlign=bottom;align=right;overflow=width;vsdxID=11811;fillColor=#f2f2f2;gradientColor=none;shape=stencil(nZBLDoAgDERP0z3SIyjew0SURgSD+Lu9kMZoXLhwN9O+tukAlrNpJg1SzDH4QW/URgNYgZTkjA4UkwJUgGXng+6DX1zLfmoymdXo17xh5zmRJ6Q42BWCfc2oJfdAr+Yv+AP9Cb7OJ3H/2JG1HNGz/84klThPVCc=);dashed=1;dashPattern=1.00 2.00;strokeColor=#6b859a;points=[[1,0.5,0],[0.5,0,0],[0.5,0.5,0],[0.5,0.5,0]];labelBackgroundColor=none;rounded=0;html=1;whiteSpace=wrap;strokeWidth=2;" vertex="1" parent="1">
            <mxGeometry x="580" y="528" width="180" height="170" as="geometry" />
          </mxCell>
        </UserObject>
        <UserObject label="" tags="Background" id="nlEW3K9Ex5rDqI_QTZeK-6">
          <mxCell style="vsdxID=11812;fillColor=none;gradientColor=none;strokeColor=none;spacingTop=-3;spacingBottom=-3;spacingLeft=-3;spacingRight=-3;points=[];labelBackgroundColor=none;rounded=0;html=1;whiteSpace=wrap;" vertex="1" parent="1">
            <mxGeometry x="592" y="658" width="28" height="28" as="geometry" />
          </mxCell>
        </UserObject>
        <mxCell id="nlEW3K9Ex5rDqI_QTZeK-7" style="vsdxID=11813;fillColor=#59b4d9;gradientColor=none;shape=stencil(jZLdDoIwDIWfZrdktCLeI74HkSGLCGSAwtu7pRjo8O+uPTvt1y4VmHRl1ioBsutNc1UPnfelwKMA0HWpjO5tJDAVmBSNURfTDHVOeZs5p4tuzd11GKkulNLVgJwojyg9kfc8GDKHvnsW4jg47EgaYSNN4JWNyChyQm74gAUIwj0HLy1nhuTI9WDIHfjPpjKIYk5cDfFiWilGzv2x6Ffm+udC3s7/yAm2Q6HvebuoDZZbKHRV0Smt3/3bsRLdHaZP);strokeColor=none;spacingTop=-3;spacingBottom=-3;spacingLeft=-3;spacingRight=-3;points=[];labelBackgroundColor=none;rounded=0;html=1;whiteSpace=wrap;" vertex="1" parent="nlEW3K9Ex5rDqI_QTZeK-6">
          <mxGeometry x="14" y="3" width="9" height="9" as="geometry" />
        </mxCell>
        <mxCell id="nlEW3K9Ex5rDqI_QTZeK-8" style="vsdxID=11814;fillColor=#59b4d9;gradientColor=none;shape=stencil(nZHNDsIgEISfZq9ku1C151rfo0mpEBEain9vL0iM1cRqepvd/WYPM8DrUbWDBMIxeHeQF90FBXwLRNoq6XWICngDvO6dl3vvTrbL89AmMqmjO6cP1+xbIytWyUV4yxt8TLsMG20nsKjYRrzBAlkpvhuoYiX9+x2XgQXOoM/jIngG/RFbFK/Ae21M7mt6/ywornK5vLkD);strokeColor=none;spacingTop=-3;spacingBottom=-3;spacingLeft=-3;spacingRight=-3;points=[];labelBackgroundColor=none;rounded=0;html=1;whiteSpace=wrap;" vertex="1" parent="nlEW3K9Ex5rDqI_QTZeK-6">
          <mxGeometry x="10" y="15" width="17" height="12" as="geometry" />
        </mxCell>
        <mxCell id="nlEW3K9Ex5rDqI_QTZeK-9" style="vsdxID=11815;fillColor=#FFFFFF;gradientColor=none;fillOpacity=20;strokeOpacity=20;shape=stencil(fVJdD4IwDPw1e226Vhg8K/4PoyCLCGTi178X0hGpMbz1rtfdbZ3h7a0+9KUhvA2hu5RPfxpqwztD5Nu6DH4YK8OF4W3VhfIcunt7EtwfJuVUXbvHdMJL5nCaIHwLSgTuRXm8B5FarY3QOSAn1IuE4hSsjapI5TlsOKo4DuaQRuodKYvKufHtIuPcnFNacGsxc4aEdFTUMTMHuNExUUfMEJJUR1x9muXF/3ui9iMCm2pP1H56F2PxXWHlm0Z+wLL/u/KRku/CxQc=);strokeColor=none;spacingTop=-3;spacingBottom=-3;spacingLeft=-3;spacingRight=-3;points=[];labelBackgroundColor=none;rounded=0;html=1;whiteSpace=wrap;" vertex="1" parent="nlEW3K9Ex5rDqI_QTZeK-6">
          <mxGeometry x="14" y="3" width="6" height="9" as="geometry" />
        </mxCell>
        <mxCell id="nlEW3K9Ex5rDqI_QTZeK-10" style="vsdxID=11816;fillColor=#FFFFFF;gradientColor=none;fillOpacity=20;strokeOpacity=20;shape=stencil(nZHdCsIwDIWfJrclbXDufs73GKyzxdqOrk59e1vDcAj+4N1JzpdAToCayXSjBoVTiuGoL7ZPBmgHSllvdLQpK6AWqBlC1IcYzr7neuwKWdQpzGXDleeqjUAqUwpv3MFHtWfYWb+C8T9Q4ge0rsRW/o4v5gKTFFi/x7+cl8UzmME6x7mu/dcgc4ufQO0d);strokeColor=none;spacingTop=-3;spacingBottom=-3;spacingLeft=-3;spacingRight=-3;points=[];labelBackgroundColor=none;rounded=0;html=1;whiteSpace=wrap;" vertex="1" parent="nlEW3K9Ex5rDqI_QTZeK-6">
          <mxGeometry x="10" y="15" width="8" height="12" as="geometry" />
        </mxCell>
        <mxCell id="nlEW3K9Ex5rDqI_QTZeK-11" style="vsdxID=11817;fillColor=#a0a1a2;gradientColor=none;shape=stencil(nZLRDoMgDEW/pq8EaDTu2bn/MBEHGQODzG1/PxhZpi5q3NttOW1KewHLXtadAE577+xF3FXjJeAROFdGCqd8UIAVYNlaJ87O3kyT4q6OZFRXO8QOj1THi1jC6TOFOSPs8M6cEq2VGdEZJ9mEZ5Qu07iLphM029N3hf2ZeIWd7QILQvNl+vOZP/GNTW/dJYjvSVuldXLE+H1ugZBK9sHqBQ==);strokeColor=none;spacingTop=-3;spacingBottom=-3;spacingLeft=-3;spacingRight=-3;points=[];labelBackgroundColor=none;rounded=0;html=1;whiteSpace=wrap;" vertex="1" parent="nlEW3K9Ex5rDqI_QTZeK-6">
          <mxGeometry y="5" width="11" height="7" as="geometry" />
        </mxCell>
        <mxCell id="nlEW3K9Ex5rDqI_QTZeK-12" style="vsdxID=11818;fillColor=#a0a1a2;gradientColor=none;shape=stencil(UzV2Ls5ILEhVNTIoLinKz04tz0wpyVA1dlE1MsrMy0gtyiwBslSNXVWNndPyi1LTi/JL81Ig/IJEkEoQKze/DGRCBUSfoYEBSI+RQSWED+G5QZTmZObhUQrjY1VMtlISHICiFMhA+DEtMycHEkTI8uhhAhSChKexKwA=);strokeColor=none;spacingTop=-3;spacingBottom=-3;spacingLeft=-3;spacingRight=-3;points=[];labelBackgroundColor=none;rounded=0;html=1;whiteSpace=wrap;" vertex="1" parent="nlEW3K9Ex5rDqI_QTZeK-6">
          <mxGeometry x="9" width="1" height="10" as="geometry" />
        </mxCell>
        <UserObject label="" tags="Background" id="nlEW3K9Ex5rDqI_QTZeK-13">
          <mxCell style="vsdxID=11819;fillColor=#fbe5d5;gradientColor=none;shape=stencil(rVFbDsIgEDwNnyQU4glqvcfGblsilmZBS28vZGMsxg9j/JvZmX1kR5g2TLCg0CpE8hdcbR8nYY5CaztPSDZmJEwnTDt4wpH8be6ZL1CcBV39vUxI3KdKh1YbswPTEzuBzlmiVGmKau9zUKM+jlJJQrJBko8QrZ+rrQ5oRJnXyMHBWElhRVx25ebnw/5zVvPFWRm83jxY5zilvf4eSy5xpKZ7AA==);strokeColor=#ed7d31;points=[[0.5,0,0],[0.5,0.5,0],[0.5,0.5,0],[0.5,0.5,0],[1,0.5,0],[0.15,0.85,0],[0.85,0.85,0],[0.85,0.15,0],[0.15,0.15,0]];labelBackgroundColor=none;rounded=0;html=1;whiteSpace=wrap;" vertex="1" parent="1">
            <mxGeometry x="560" y="508" width="40" height="40" as="geometry" />
          </mxCell>
        </UserObject>
        <mxCell id="nlEW3K9Ex5rDqI_QTZeK-14" value="&lt;div style=&quot;font-size: 1px&quot;&gt;&lt;font style=&quot;font-size:14.11px;font-family:Segoe UI Semibold;color:#ed7d31;direction:ltr;letter-spacing:0px;line-height:120%;opacity:1&quot;&gt;&lt;b&gt;5&lt;br&gt;&lt;/b&gt;&lt;/font&gt;&lt;/div&gt;" style="text;vsdxID=11819;fillColor=none;gradientColor=none;strokeColor=none;points=[[0.5,0,0],[0.5,0.5,0],[0.5,0.5,0],[0.5,0.5,0],[1,0.5,0],[0.15,0.85,0],[0.85,0.85,0],[0.85,0.15,0],[0.15,0.15,0]];labelBackgroundColor=none;rounded=0;html=1;whiteSpace=wrap;verticalAlign=middle;align=center;overflow=width;;html=1;" vertex="1" parent="nlEW3K9Ex5rDqI_QTZeK-13">
          <mxGeometry x="1.5" y="5" width="35" height="30" as="geometry" />
        </mxCell>
        <UserObject label="" tags="Background" id="nlEW3K9Ex5rDqI_QTZeK-15">
          <mxCell style="vsdxID=11820;fillColor=none;gradientColor=none;strokeColor=none;spacingTop=-3;spacingBottom=-3;spacingLeft=-3;spacingRight=-3;points=[];labelBackgroundColor=none;rounded=0;html=1;whiteSpace=wrap;" vertex="1" parent="1">
            <mxGeometry x="486" y="525" width="43" height="25" as="geometry" />
          </mxCell>
        </UserObject>
        <mxCell id="nlEW3K9Ex5rDqI_QTZeK-16" style="vsdxID=11821;fillColor=#3999c6;gradientColor=none;shape=stencil(lZRNcsIwDIVPk63Glvy7pnAPpoSSKSVMCC3cvk5tguW0KeyMeM/6FD+7osVptz7WFYpT37Xv9Vez6XcVvVSIzWFXd00fVhUtK1ps265+69rzYRN/H9eDclh9tJ/DDpfo8wacH1worrGiEZT8qayi4fXcRYeMAilEMqSCFmDSHhdM23ogl1SppCx4SiqaNk8lZQBZ931zyHCdBM9xadz2V4NU4CUzSLA4O54Ex+cTfDYLSvPRBB9LAWk+VdmTM2b6BxEBFUekkelGGc4EOeX4ZWdA5z+mVaCJkU6Oq0S1FkzBmgcBpyqchoqm7emPsHJgAskP3yMIO8dbRNsT2CLagnOGDGvNObOut6A7QPcMZqkvMe9neS1v5Y0z5FgWVzDcSmM4q6Sx9CCsEyCR0Zr/8ppbZOkZgXMVTlU0qmwR2qCiGeAHnrinDWFxf1G3zX4fH+T8//IFDqX4etPyGw==);strokeColor=none;spacingTop=-3;spacingBottom=-3;spacingLeft=-3;spacingRight=-3;points=[];labelBackgroundColor=none;rounded=0;html=1;whiteSpace=wrap;" vertex="1" parent="nlEW3K9Ex5rDqI_QTZeK-15">
          <mxGeometry x="29" width="13" height="25" as="geometry" />
        </mxCell>
        <mxCell id="nlEW3K9Ex5rDqI_QTZeK-17" style="vsdxID=11822;fillColor=#3999c6;gradientColor=none;shape=stencil(lZTRdoMgDIafxtscSAThuuveo2e10zNXe6zd2rcfHqgS2Ox6h/EP+RJ+KGhzbnanukBxHof+o/5u92NT0EuB2B6bemhHtypoW9Dm0A/1+9Bfjnv/fdpNymn12X9NO1x9HoGUUxKKmw8ohNJHXr3+7TL4BOkFIsjDpxKgrQ9dMShAYxCFSFmBpSCirHCIlBqQVe7aY0QqDQiOSvOuvyYYBcKyBAkVrrVmDCDvTvDOLIJSvDXB27IKtOJ9pVU5ZZzwP0proNIck6BUCakFMpx0Hu8a7PpI3R4VP4Ps0FJax5bAxmbATIS5rSgvTn+YNZmtBsMd4A5QVGu4UiT+tgRV4u9Fg3Oduy3m0UalaT43NE/BpgmZExa2W8p/h3WeNsltdN7QmuMaDVQ+heuuoyaGqx/ONkqRac4y3UiFuYpmlUjMoNcv2uOX7lm9WyzP6qHtOv8qx//TZ9iF/BNO2x8=);strokeColor=none;spacingTop=-3;spacingBottom=-3;spacingLeft=-3;spacingRight=-3;points=[];labelBackgroundColor=none;rounded=0;html=1;whiteSpace=wrap;" vertex="1" parent="nlEW3K9Ex5rDqI_QTZeK-15">
          <mxGeometry width="13" height="25" as="geometry" />
        </mxCell>
        <mxCell id="nlEW3K9Ex5rDqI_QTZeK-18" style="vsdxID=11823;fillColor=#7fba00;gradientColor=none;shape=stencil(jZLREoIgEEW/hlcGFxV8NvsPJzWZTB3Usr9PZmkUKuttd7nL4Q6X8HSo874kwIZRd5fyroqxJvxAAFRbl1qNS0V4Rnhadbo8625qC+z73ChNde1u5oYZ9wLGzA6wB/YRtkfUniaN4sBX24GQVCQ4msGOYhoKqwJvbeaWEqwa7mq+kGFzq/+YF5m5VBFREbtc5jL3zXpWIaQQukBgNEpc6G+ju0zJqJQu1zO5fgG8v4v7mo9GG9X+nYClWKNTqabB5G3P/agtI4wpz54=);strokeColor=none;spacingTop=-3;spacingBottom=-3;spacingLeft=-3;spacingRight=-3;points=[];labelBackgroundColor=none;rounded=0;html=1;whiteSpace=wrap;" vertex="1" parent="nlEW3K9Ex5rDqI_QTZeK-15">
          <mxGeometry x="10" y="9" width="5" height="5" as="geometry" />
        </mxCell>
        <mxCell id="nlEW3K9Ex5rDqI_QTZeK-19" style="vsdxID=11824;fillColor=#7fba00;gradientColor=none;shape=stencil(jZLRDoIwDEW/Zq/LaIHJM+p/EBmyiEAGKP69kM7ApqJvbXe7s5tdhmlXZq1iILreNBd113lfMtwzAF2Xyuh+qhgeGKZFY9TZNEOdU99ms3Kurs1tvmGkvUCIeQfEg/qI2iNpT4MhceCr7UDuuExoNIIdxTyUVgXe2oiWEiwadDVfyLC61X/Miyxcqoy4jF2ucJnbZj2rEHIIXSAgj9CF/ja6yZQJDwOX65lcvgDe34W+5qPRStd/J2AqlugUuqooeetzP2rTiGKKhyc=);strokeColor=none;spacingTop=-3;spacingBottom=-3;spacingLeft=-3;spacingRight=-3;points=[];labelBackgroundColor=none;rounded=0;html=1;whiteSpace=wrap;" vertex="1" parent="nlEW3K9Ex5rDqI_QTZeK-15">
          <mxGeometry x="18" y="9" width="5" height="5" as="geometry" />
        </mxCell>
        <mxCell id="nlEW3K9Ex5rDqI_QTZeK-20" style="vsdxID=11825;fillColor=#7fba00;gradientColor=none;shape=stencil(vVHLDsIgEPwajiQI6RfU+h8bu22JCGRB2/69kG1iazx58DazM/vIjjBtmiCi0CplCjecbZ8nYc5Ca+snJJsLEqYTph0C4Ujh4XvmEaqzont41gkL96naodXKrGF6YSfQtUi0OXXDVlqPfJNP6usotUhYbJIUMmQb/GGrAxpRljVycDBuc1hKM2LclX8/7H9nFfB+82Cd45T2+mcspcSRmu4F);strokeColor=none;spacingTop=-3;spacingBottom=-3;spacingLeft=-3;spacingRight=-3;points=[];labelBackgroundColor=none;rounded=0;html=1;whiteSpace=wrap;" vertex="1" parent="nlEW3K9Ex5rDqI_QTZeK-15">
          <mxGeometry x="27" y="9" width="5" height="5" as="geometry" />
        </mxCell>
        <UserObject label="&lt;div style=&quot;font-size: 1px&quot;&gt;&lt;font style=&quot;font-size:14.11px;font-family:Segoe UI Semibold;color:#6b859a;direction:ltr;letter-spacing:0px;line-height:120%;opacity:1&quot;&gt;&lt;b&gt;Virtual&lt;/b&gt;&lt;/font&gt;&lt;font style=&quot;font-size:14.11px;font-family:Segoe UI Semibold;color:#6b859a;direction:ltr;letter-spacing:0px;line-height:120%;opacity:1&quot;&gt;&lt;b&gt;&lt;br/&gt;&lt;/b&gt;&lt;/font&gt;&lt;font style=&quot;font-size:14.11px;font-family:Segoe UI Semibold;color:#6b859a;direction:ltr;letter-spacing:0px;line-height:120%;opacity:1&quot;&gt;&lt;b&gt;N&lt;/b&gt;&lt;/font&gt;&lt;font style=&quot;font-size:14.11px;font-family:Segoe UI Semibold;color:#6b859a;direction:ltr;letter-spacing:0px;line-height:120%;opacity:1&quot;&gt;&lt;b&gt;etwork &lt;br/&gt;peering&lt;br/&gt;&lt;/b&gt;&lt;/font&gt;&lt;/div&gt;" tags="Background" id="nlEW3K9Ex5rDqI_QTZeK-21">
          <mxCell style="verticalAlign=middle;align=center;overflow=width;vsdxID=11826;fillColor=none;gradientColor=none;shape=stencil(nZBLDoAgDERP0z3SIyjew0SURgSD+Lu9kMZoXLhwN9O+tukAlrNpJg1SzDH4QW/URgNYgZTkjA4UkwJUgGXng+6DX1zLfmoymdXo17xh5zmRJ6Q42BWCfc2oJfdAr+Yv+AP9Cb7OJ3H/2JG1HNGz/84klThPVCc=);strokeColor=none;points=[];labelBackgroundColor=none;rounded=0;html=1;whiteSpace=wrap;" vertex="1" parent="1">
            <mxGeometry x="460" y="556" width="100" height="52" as="geometry" />
          </mxCell>
        </UserObject>
        <UserObject label="" tags="Background" id="nlEW3K9Ex5rDqI_QTZeK-22">
          <mxCell style="vsdxID=11827;fillColor=none;gradientColor=none;strokeColor=none;spacingTop=-3;spacingBottom=-3;spacingLeft=-3;spacingRight=-3;points=[];labelBackgroundColor=none;rounded=0;html=1;whiteSpace=wrap;" vertex="1" parent="1">
            <mxGeometry x="748" y="515" width="23" height="32" as="geometry" />
          </mxCell>
        </UserObject>
        <mxCell id="nlEW3K9Ex5rDqI_QTZeK-23" style="vsdxID=11828;fillColor=none;gradientColor=none;strokeColor=none;spacingTop=-3;spacingBottom=-3;spacingLeft=-3;spacingRight=-3;points=[];labelBackgroundColor=none;rounded=0;html=1;whiteSpace=wrap;" vertex="1" parent="nlEW3K9Ex5rDqI_QTZeK-22">
          <mxGeometry width="23" height="32" as="geometry" />
        </mxCell>
        <mxCell id="nlEW3K9Ex5rDqI_QTZeK-24" style="vsdxID=11829;fillColor=#0072c6;gradientColor=none;shape=stencil(jVTLcoMwDPwaXzW2/MLnNPmPTEMKUxoyhLT07wu1GVvqhOZmSSvvWg8Lvbs1x2stUN7GoX+vv9rT2Aj9IhDbS1MP7TifhN4LvTv3Q/029PfLKdrX44JcTh/953LDFPMqC2iXLJTf0aMQJP56DjHh9T7EDBUB1oIKKSW5AriYIidMIJkQyU7mpFlYl+FHhJKySUplNChP2eY3GKSMjDAjEmnXXoqySFISp8HrLYVMoAsQDBMJzlCN3oK3VKNSgFRmJcG7LWa0EBxrBoKqtruh5D/9WAFPdiTfxwlWxkpD8Oy1kpH+KTPtScY/aCFXGQxYw4QWg7Eqy8NbjA+y8Sn3JI8QXRQq94nNmg95L89t18W1LuN8j2dX/AP0/gc=);strokeColor=none;strokeWidth=17;spacingTop=-3;spacingBottom=-3;spacingLeft=-3;spacingRight=-3;points=[];labelBackgroundColor=none;rounded=0;html=1;whiteSpace=wrap;" vertex="1" parent="nlEW3K9Ex5rDqI_QTZeK-23">
          <mxGeometry width="23" height="32" as="geometry" />
        </mxCell>
        <mxCell id="nlEW3K9Ex5rDqI_QTZeK-25" style="vsdxID=11830;fillColor=#3999c6;gradientColor=none;fillOpacity=40;strokeOpacity=40;shape=stencil(lZLRboMwDEW/Jq+WHYcQnrv2P6qWjmgMqpRu9O8HMqhJVjTtzdwc+14sK97dmuO1VhpvQ+g/6m9/HhrFb0pr3zV18MNUKd4r3l36UL+H/t6d5ft6nMm5+uy/5gmj9JUMZm7S+BDBIFSiHIRvfRfxhJjgZMBVMX66B5lPAlgD5eqwSERQkUijFqlwYIuFWqTFZ+TfBMfEhm/MUzpx9USwJvWkAtilvph6PomX60mXU7r1RzdCYhrQWbBZRjDZWiqGLCExkMlSIm5nZAakJKfDdVcvG/57I3/zU/E8yItvW7nn+D0/4EmS4+f9Dw==);strokeColor=none;strokeWidth=17;spacingTop=-3;spacingBottom=-3;spacingLeft=-3;spacingRight=-3;points=[];labelBackgroundColor=none;rounded=0;html=1;whiteSpace=wrap;" vertex="1" parent="nlEW3K9Ex5rDqI_QTZeK-23">
          <mxGeometry width="20" height="25" as="geometry" />
        </mxCell>
        <mxCell id="nlEW3K9Ex5rDqI_QTZeK-26" style="vsdxID=11831;fillColor=none;gradientColor=none;strokeColor=none;spacingTop=-3;spacingBottom=-3;spacingLeft=-3;spacingRight=-3;points=[];labelBackgroundColor=none;rounded=0;html=1;whiteSpace=wrap;" vertex="1" parent="nlEW3K9Ex5rDqI_QTZeK-23">
          <mxGeometry x="2" y="3" width="18" height="25" as="geometry" />
        </mxCell>
        <mxCell id="nlEW3K9Ex5rDqI_QTZeK-27" style="vsdxID=11832;fillColor=#FFFFFF;gradientColor=none;fillOpacity=30;strokeOpacity=30;shape=stencil(nZLRDoIwDEW/Zq/L1jpwz6j/QWTIIjIyQPHvZdkURtRE39q7096kuwSzrspbRYB1vTVnddNFXxHcEQDdVMrqfqoI7glmpbHqZM3QFL5vc0e66mKubsPo55ibAHZfdgcP1rr5CIKkabKEj4P1a3mMh3bDqRReGsFLkgoZoKAIpDwNEAYfoEmAgpIAlfjNWQBlInbfCopp7M4Zi81fwtN6JlbC2/PM9I+X/A+civlHS13XPhDL93UCJsmnB/cP);strokeColor=none;strokeWidth=17;spacingTop=-3;spacingBottom=-3;spacingLeft=-3;spacingRight=-3;points=[];labelBackgroundColor=none;rounded=0;html=1;whiteSpace=wrap;" vertex="1" parent="nlEW3K9Ex5rDqI_QTZeK-26">
          <mxGeometry y="12" width="9" height="13" as="geometry" />
        </mxCell>
        <mxCell id="nlEW3K9Ex5rDqI_QTZeK-28" style="vsdxID=11833;fillColor=#FFFFFF;gradientColor=none;fillOpacity=70;strokeOpacity=70;shape=stencil(vZNNDoIwEIVP023TdiiBNeI9iBRpREoqKNxemiGBNmokJu7mvX79mZcpgexWF50igt16ay7qocu+JnAgQui2Vlb3c0UgJ5BVxqqzNUNbou4KR7rqau7uhBH3Sea2CDah5Az1EdnTYBHmAc19nI0iMKbFSICmYmEgZBYjBpqI7bWNbjdPXHnUUUKj9D0uf6GD/vewH3PdlWqQaQSUSz9VLqiM/VSDTFfiZSv/S/T7PD1yLtaRrXTT4MRv18MRny38HpA/AQ==);strokeColor=none;strokeWidth=17;spacingTop=-3;spacingBottom=-3;spacingLeft=-3;spacingRight=-3;points=[];labelBackgroundColor=none;rounded=0;html=1;whiteSpace=wrap;" vertex="1" parent="nlEW3K9Ex5rDqI_QTZeK-26">
          <mxGeometry width="18" height="25" as="geometry" />
        </mxCell>
        <mxCell id="nlEW3K9Ex5rDqI_QTZeK-29" style="vsdxID=11834;fillColor=#FFFFFF;gradientColor=none;fillOpacity=30;strokeOpacity=30;shape=stencil(nVLbDoIwDP2avS6jAzaeUf+DyJBFZGSA4t/LLLeZSIxv7ek5W09bwtO2zBpFgLWdNVf10HlXEn4gALouldXdGBF+JDwtjFUXa/o6x7zJHNNFN3N3LwyoixMqY6cC9kQEQhrKN3JCwbm3qAiQEDAKYpLMULJAAyDEJoafDtyveun0X6XrTYPMay5gO9S5+BcZIhrBnm2ZUBb6tlfNYltIKoRvHSLf+3bk/MvM/V5/WNIYrCsudFXhhWzrnycxQnhO/PgC);strokeColor=none;strokeWidth=17;spacingTop=-3;spacingBottom=-3;spacingLeft=-3;spacingRight=-3;points=[];labelBackgroundColor=none;rounded=0;html=1;whiteSpace=wrap;" vertex="1" parent="nlEW3K9Ex5rDqI_QTZeK-26">
          <mxGeometry x="9" width="9" height="12" as="geometry" />
        </mxCell>
        <UserObject label="" tags="Background" id="nlEW3K9Ex5rDqI_QTZeK-51">
          <mxCell style="vsdxID=11856;fillColor=none;gradientColor=none;strokeColor=none;spacingTop=-3;spacingBottom=-3;spacingLeft=-3;spacingRight=-3;points=[];labelBackgroundColor=none;rounded=0;html=1;whiteSpace=wrap;" vertex="1" parent="1">
            <mxGeometry x="568" y="708" width="32" height="18" as="geometry" />
          </mxCell>
        </UserObject>
        <mxCell id="nlEW3K9Ex5rDqI_QTZeK-52" style="vsdxID=11857;fillColor=#3999c6;gradientColor=none;shape=stencil(lZRNcsIwDIVPk63Glvy7pnAPpoSSKSVMCC3cvk5tguW0KeyMeM/6FD+7osVptz7WFYpT37Xv9Vez6XcVvVSIzWFXd00fVhUtK1ps265+69rzYRN/H9eDclh9tJ/DDpfo8wacH1worrGiEZT8qayi4fXcRYeMAilEMqSCFmDSHhdM23ogl1SppCx4SiqaNk8lZQBZ931zyHCdBM9xadz2V4NU4CUzSLA4O54Ex+cTfDYLSvPRBB9LAWk+VdmTM2b6BxEBFUekkelGGc4EOeX4ZWdA5z+mVaCJkU6Oq0S1FkzBmgcBpyqchoqm7emPsHJgAskP3yMIO8dbRNsT2CLagnOGDGvNObOut6A7QPcMZqkvMe9neS1v5Y0z5FgWVzDcSmM4q6Sx9CCsEyCR0Zr/8ppbZOkZgXMVTlU0qmwR2qCiGeAHnrinDWFxf1G3zX4fH+T8//IFDqX4etPyGw==);strokeColor=none;spacingTop=-3;spacingBottom=-3;spacingLeft=-3;spacingRight=-3;points=[];labelBackgroundColor=none;rounded=0;html=1;whiteSpace=wrap;" vertex="1" parent="nlEW3K9Ex5rDqI_QTZeK-51">
          <mxGeometry x="21" width="10" height="18" as="geometry" />
        </mxCell>
        <mxCell id="nlEW3K9Ex5rDqI_QTZeK-53" style="vsdxID=11858;fillColor=#3999c6;gradientColor=none;shape=stencil(lZTRdoMgDIafxtscSAThuuveo2e10zNXe6zd2rcfHqgS2Ox6h/EP+RJ+KGhzbnanukBxHof+o/5u92NT0EuB2B6bemhHtypoW9Dm0A/1+9Bfjnv/fdpNymn12X9NO1x9HoGUUxKKmw8ohNJHXr3+7TL4BOkFIsjDpxKgrQ9dMShAYxCFSFmBpSCirHCIlBqQVe7aY0QqDQiOSvOuvyYYBcKyBAkVrrVmDCDvTvDOLIJSvDXB27IKtOJ9pVU5ZZzwP0proNIck6BUCakFMpx0Hu8a7PpI3R4VP4Ps0FJax5bAxmbATIS5rSgvTn+YNZmtBsMd4A5QVGu4UiT+tgRV4u9Fg3Oduy3m0UalaT43NE/BpgmZExa2W8p/h3WeNsltdN7QmuMaDVQ+heuuoyaGqx/ONkqRac4y3UiFuYpmlUjMoNcv2uOX7lm9WyzP6qHtOv8qx//TZ9iF/BNO2x8=);strokeColor=none;spacingTop=-3;spacingBottom=-3;spacingLeft=-3;spacingRight=-3;points=[];labelBackgroundColor=none;rounded=0;html=1;whiteSpace=wrap;" vertex="1" parent="nlEW3K9Ex5rDqI_QTZeK-51">
          <mxGeometry width="10" height="18" as="geometry" />
        </mxCell>
        <mxCell id="nlEW3K9Ex5rDqI_QTZeK-54" style="vsdxID=11859;fillColor=#7fba00;gradientColor=none;shape=stencil(jZLREoIgEEW/hlcGFxV8NvsPJzWZTB3Usr9PZmkUKuttd7nL4Q6X8HSo874kwIZRd5fyroqxJvxAAFRbl1qNS0V4Rnhadbo8625qC+z73ChNde1u5oYZ9wLGzA6wB/YRtkfUniaN4sBX24GQVCQ4msGOYhoKqwJvbeaWEqwa7mq+kGFzq/+YF5m5VBFREbtc5jL3zXpWIaQQukBgNEpc6G+ju0zJqJQu1zO5fgG8v4v7mo9GG9X+nYClWKNTqabB5G3P/agtI4wpz54=);strokeColor=none;spacingTop=-3;spacingBottom=-3;spacingLeft=-3;spacingRight=-3;points=[];labelBackgroundColor=none;rounded=0;html=1;whiteSpace=wrap;" vertex="1" parent="nlEW3K9Ex5rDqI_QTZeK-51">
          <mxGeometry x="7" y="6" width="4" height="4" as="geometry" />
        </mxCell>
        <mxCell id="nlEW3K9Ex5rDqI_QTZeK-55" style="vsdxID=11860;fillColor=#7fba00;gradientColor=none;shape=stencil(jZLRDoIwDEW/Zq/LaIHJM+p/EBmyiEAGKP69kM7ApqJvbXe7s5tdhmlXZq1iILreNBd113lfMtwzAF2Xyuh+qhgeGKZFY9TZNEOdU99ms3Kurs1tvmGkvUCIeQfEg/qI2iNpT4MhceCr7UDuuExoNIIdxTyUVgXe2oiWEiwadDVfyLC61X/Miyxcqoy4jF2ucJnbZj2rEHIIXSAgj9CF/ja6yZQJDwOX65lcvgDe34W+5qPRStd/J2AqlugUuqooeetzP2rTiGKKhyc=);strokeColor=none;spacingTop=-3;spacingBottom=-3;spacingLeft=-3;spacingRight=-3;points=[];labelBackgroundColor=none;rounded=0;html=1;whiteSpace=wrap;" vertex="1" parent="nlEW3K9Ex5rDqI_QTZeK-51">
          <mxGeometry x="13" y="6" width="4" height="4" as="geometry" />
        </mxCell>
        <mxCell id="nlEW3K9Ex5rDqI_QTZeK-56" style="vsdxID=11861;fillColor=#7fba00;gradientColor=none;shape=stencil(vVHLDsIgEPwajiQI6RfU+h8bu22JCGRB2/69kG1iazx58DazM/vIjjBtmiCi0CplCjecbZ8nYc5Ca+snJJsLEqYTph0C4Ujh4XvmEaqzont41gkL96naodXKrGF6YSfQtUi0OXXDVlqPfJNP6usotUhYbJIUMmQb/GGrAxpRljVycDBuc1hKM2LclX8/7H9nFfB+82Cd45T2+mcspcSRmu4F);strokeColor=none;spacingTop=-3;spacingBottom=-3;spacingLeft=-3;spacingRight=-3;points=[];labelBackgroundColor=none;rounded=0;html=1;whiteSpace=wrap;" vertex="1" parent="nlEW3K9Ex5rDqI_QTZeK-51">
          <mxGeometry x="20" y="6" width="4" height="4" as="geometry" />
        </mxCell>
        <UserObject label="&lt;div style=&quot;font-size: 1px&quot;&gt;&lt;p style=&quot;text-align:right;margin-left:0;margin-right:0;margin-top:0px;margin-bottom:0px;text-indent:0;vertical-align:bottom;direction:ltr;&quot;&gt;&lt;font style=&quot;font-size:14.11px;font-family:Segoe UI Semibold;color:#6b859a;direction:ltr;letter-spacing:0px;line-height:120%;opacity:1&quot;&gt;&lt;b&gt;Platform Connectivity vNet&lt;br/&gt;&lt;/b&gt;&lt;/font&gt;&lt;/p&gt;&lt;/div&gt;" tags="Background" id="nlEW3K9Ex5rDqI_QTZeK-57">
          <mxCell style="verticalAlign=bottom;align=right;overflow=width;vsdxID=11877;fillColor=#feffff;gradientColor=none;shape=stencil(nZBLDoAgDERP0z3SIyjew0SURgSD+Lu9kMZoXLhwN9O+tukAlrNpJg1SzDH4QW/URgNYgZTkjA4UkwJUgGXng+6DX1zLfmoymdXo17xh5zmRJ6Q42BWCfc2oJfdAr+Yv+AP9Cb7OJ3H/2JG1HNGz/84klThPVCc=);dashed=1;dashPattern=1.00 2.00;strokeColor=#6b859a;points=[[1,0.5,0],[0.5,0,0],[0.5,0.5,0],[0.5,0.5,0]];labelBackgroundColor=none;rounded=0;html=1;whiteSpace=wrap;strokeWidth=2;" vertex="1" parent="1">
            <mxGeometry x="220" y="498" width="240" height="240" as="geometry" />
          </mxCell>
        </UserObject>
        <UserObject label="&lt;div style=&quot;font-size: 1px&quot;&gt;&lt;p style=&quot;text-align:right;margin-left:0;margin-right:0;margin-top:0px;margin-bottom:0px;text-indent:0;vertical-align:bottom;direction:ltr;&quot;&gt;&lt;font style=&quot;font-size:14.11px;font-family:Segoe UI Semibold;color:#6b859a;direction:ltr;letter-spacing:0px;line-height:120%;opacity:1&quot;&gt;&lt;b&gt;AzureFirewallSubnet&lt;br/&gt;&lt;/b&gt;&lt;/font&gt;&lt;/p&gt;&lt;/div&gt;" tags="Background" id="nlEW3K9Ex5rDqI_QTZeK-58">
          <mxCell style="verticalAlign=bottom;align=right;overflow=width;vsdxID=11878;fillColor=#f2f2f2;gradientColor=none;shape=stencil(nZBLDoAgDERP0z3SIyjew0SURgSD+Lu9kMZoXLhwN9O+tukAlrNpJg1SzDH4QW/URgNYgZTkjA4UkwJUgGXng+6DX1zLfmoymdXo17xh5zmRJ6Q42BWCfc2oJfdAr+Yv+AP9Cb7OJ3H/2JG1HNGz/84klThPVCc=);dashed=1;dashPattern=1.00 2.00;strokeColor=#6b859a;points=[[1,0.5,0],[0.5,0,0],[0.5,0.5,0],[0.5,0.5,0]];labelBackgroundColor=none;rounded=0;html=1;whiteSpace=wrap;strokeWidth=2;" vertex="1" parent="1">
            <mxGeometry x="240" y="518" width="200" height="180" as="geometry" />
          </mxCell>
        </UserObject>
        <UserObject label="&lt;div style=&quot;font-size: 1px&quot;&gt;&lt;/div&gt;" tags="Background" id="nlEW3K9Ex5rDqI_QTZeK-59">
          <mxCell style="verticalAlign=middle;align=center;overflow=width;vsdxID=11879;fillColor=#b1dafb;gradientColor=none;shape=stencil(nZBLDoAgDERP0z3SIyjew0SURgSD+Lu9kMZoXLhwN9O+tukAlrNpJg1SzDH4QW/URgNYgZTkjA4UkwJUgGXng+6DX1zLfmoymdXo17xh5zmRJ6Q42BWCfc2oJfdAr+Yv+AP9Cb7OJ3H/2JG1HNGz/84klThPVCc=);strokeColor=#6b859a;points=[[1,0.5,0],[0.5,0,0],[0.5,0.5,0],[0.5,0.5,0]];labelBackgroundColor=none;rounded=0;html=1;whiteSpace=wrap;" vertex="1" parent="1">
            <mxGeometry x="260" y="538" width="160" height="60" as="geometry" />
          </mxCell>
        </UserObject>
        <UserObject label="&lt;div style=&quot;font-size: 1px&quot;&gt;&lt;/div&gt;" tags="Background" id="nlEW3K9Ex5rDqI_QTZeK-60">
          <mxCell style="verticalAlign=middle;align=center;overflow=width;vsdxID=11880;fillColor=#ffffff;gradientColor=none;shape=stencil(nZBLDoAgDERP0z3SIyjew0SURgSD+Lu9kMZoXLhwN9O+tukAlrNpJg1SzDH4QW/URgNYgZTkjA4UkwJUgGXng+6DX1zLfmoymdXo17xh5zmRJ6Q42BWCfc2oJfdAr+Yv+AP9Cb7OJ3H/2JG1HNGz/84klThPVCc=);strokeColor=#6b859a;points=[[1,0.5,0],[0.5,0,0],[0.5,0.5,0],[0.5,0.5,0]];labelBackgroundColor=none;rounded=0;html=1;whiteSpace=wrap;" vertex="1" parent="1">
            <mxGeometry x="260" y="598" width="160" height="60" as="geometry" />
          </mxCell>
        </UserObject>
        <UserObject label="&lt;div style=&quot;font-size: 1px&quot;&gt;&lt;p style=&quot;text-align:left;margin-left:0;margin-right:0;margin-top:0px;margin-bottom:0px;text-indent:0;vertical-align:middle;direction:ltr;&quot;&gt;&lt;font style=&quot;font-size:14.11px;font-family:Segoe UI Semibold;color:#6b859a;direction:ltr;letter-spacing:0px;line-height:120%;opacity:1&quot;&gt;&lt;b&gt;Azure Firewall&lt;br/&gt;&lt;/b&gt;&lt;/font&gt;&lt;/p&gt;&lt;/div&gt;" tags="Background" id="nlEW3K9Ex5rDqI_QTZeK-61">
          <mxCell style="verticalAlign=middle;align=left;overflow=width;vsdxID=11895;fillColor=none;gradientColor=none;shape=stencil(nZBLDoAgDERP0z3SIyjew0SURgSD+Lu9kMZoXLhwN9O+tukAlrNpJg1SzDH4QW/URgNYgZTkjA4UkwJUgGXng+6DX1zLfmoymdXo17xh5zmRJ6Q42BWCfc2oJfdAr+Yv+AP9Cb7OJ3H/2JG1HNGz/84klThPVCc=);strokeColor=none;points=[];labelBackgroundColor=none;rounded=0;html=1;whiteSpace=wrap;" vertex="1" parent="1">
            <mxGeometry x="328" y="537" width="92" height="60" as="geometry" />
          </mxCell>
        </UserObject>
        <UserObject label="" tags="Background" id="nlEW3K9Ex5rDqI_QTZeK-62">
          <mxCell style="vsdxID=11896;fillColor=none;gradientColor=none;strokeColor=none;spacingTop=-3;spacingBottom=-3;spacingLeft=-3;spacingRight=-3;points=[];labelBackgroundColor=none;rounded=0;html=1;whiteSpace=wrap;" vertex="1" parent="1">
            <mxGeometry x="244" y="708" width="32" height="18" as="geometry" />
          </mxCell>
        </UserObject>
        <mxCell id="nlEW3K9Ex5rDqI_QTZeK-63" style="vsdxID=11897;fillColor=#3999c6;gradientColor=none;shape=stencil(lZRNcsIwDIVPk63Glvy7pnAPpoSSKSVMCC3cvk5tguW0KeyMeM/6FD+7osVptz7WFYpT37Xv9Vez6XcVvVSIzWFXd00fVhUtK1ps265+69rzYRN/H9eDclh9tJ/DDpfo8wacH1worrGiEZT8qayi4fXcRYeMAilEMqSCFmDSHhdM23ogl1SppCx4SiqaNk8lZQBZ931zyHCdBM9xadz2V4NU4CUzSLA4O54Ex+cTfDYLSvPRBB9LAWk+VdmTM2b6BxEBFUekkelGGc4EOeX4ZWdA5z+mVaCJkU6Oq0S1FkzBmgcBpyqchoqm7emPsHJgAskP3yMIO8dbRNsT2CLagnOGDGvNObOut6A7QPcMZqkvMe9neS1v5Y0z5FgWVzDcSmM4q6Sx9CCsEyCR0Zr/8ppbZOkZgXMVTlU0qmwR2qCiGeAHnrinDWFxf1G3zX4fH+T8//IFDqX4etPyGw==);strokeColor=none;spacingTop=-3;spacingBottom=-3;spacingLeft=-3;spacingRight=-3;points=[];labelBackgroundColor=none;rounded=0;html=1;whiteSpace=wrap;" vertex="1" parent="nlEW3K9Ex5rDqI_QTZeK-62">
          <mxGeometry x="21" width="10" height="18" as="geometry" />
        </mxCell>
        <mxCell id="nlEW3K9Ex5rDqI_QTZeK-64" style="vsdxID=11898;fillColor=#3999c6;gradientColor=none;shape=stencil(lZTRdoMgDIafxtscSAThuuveo2e10zNXe6zd2rcfHqgS2Ox6h/EP+RJ+KGhzbnanukBxHof+o/5u92NT0EuB2B6bemhHtypoW9Dm0A/1+9Bfjnv/fdpNymn12X9NO1x9HoGUUxKKmw8ohNJHXr3+7TL4BOkFIsjDpxKgrQ9dMShAYxCFSFmBpSCirHCIlBqQVe7aY0QqDQiOSvOuvyYYBcKyBAkVrrVmDCDvTvDOLIJSvDXB27IKtOJ9pVU5ZZzwP0proNIck6BUCakFMpx0Hu8a7PpI3R4VP4Ps0FJax5bAxmbATIS5rSgvTn+YNZmtBsMd4A5QVGu4UiT+tgRV4u9Fg3Oduy3m0UalaT43NE/BpgmZExa2W8p/h3WeNsltdN7QmuMaDVQ+heuuoyaGqx/ONkqRac4y3UiFuYpmlUjMoNcv2uOX7lm9WyzP6qHtOv8qx//TZ9iF/BNO2x8=);strokeColor=none;spacingTop=-3;spacingBottom=-3;spacingLeft=-3;spacingRight=-3;points=[];labelBackgroundColor=none;rounded=0;html=1;whiteSpace=wrap;" vertex="1" parent="nlEW3K9Ex5rDqI_QTZeK-62">
          <mxGeometry width="10" height="18" as="geometry" />
        </mxCell>
        <mxCell id="nlEW3K9Ex5rDqI_QTZeK-65" style="vsdxID=11899;fillColor=#7fba00;gradientColor=none;shape=stencil(jZLREoIgEEW/hlcGFxV8NvsPJzWZTB3Usr9PZmkUKuttd7nL4Q6X8HSo874kwIZRd5fyroqxJvxAAFRbl1qNS0V4Rnhadbo8625qC+z73ChNde1u5oYZ9wLGzA6wB/YRtkfUniaN4sBX24GQVCQ4msGOYhoKqwJvbeaWEqwa7mq+kGFzq/+YF5m5VBFREbtc5jL3zXpWIaQQukBgNEpc6G+ju0zJqJQu1zO5fgG8v4v7mo9GG9X+nYClWKNTqabB5G3P/agtI4wpz54=);strokeColor=none;spacingTop=-3;spacingBottom=-3;spacingLeft=-3;spacingRight=-3;points=[];labelBackgroundColor=none;rounded=0;html=1;whiteSpace=wrap;" vertex="1" parent="nlEW3K9Ex5rDqI_QTZeK-62">
          <mxGeometry x="7" y="6" width="4" height="4" as="geometry" />
        </mxCell>
        <mxCell id="nlEW3K9Ex5rDqI_QTZeK-66" style="vsdxID=11900;fillColor=#7fba00;gradientColor=none;shape=stencil(jZLRDoIwDEW/Zq/LaIHJM+p/EBmyiEAGKP69kM7ApqJvbXe7s5tdhmlXZq1iILreNBd113lfMtwzAF2Xyuh+qhgeGKZFY9TZNEOdU99ms3Kurs1tvmGkvUCIeQfEg/qI2iNpT4MhceCr7UDuuExoNIIdxTyUVgXe2oiWEiwadDVfyLC61X/Miyxcqoy4jF2ucJnbZj2rEHIIXSAgj9CF/ja6yZQJDwOX65lcvgDe34W+5qPRStd/J2AqlugUuqooeetzP2rTiGKKhyc=);strokeColor=none;spacingTop=-3;spacingBottom=-3;spacingLeft=-3;spacingRight=-3;points=[];labelBackgroundColor=none;rounded=0;html=1;whiteSpace=wrap;" vertex="1" parent="nlEW3K9Ex5rDqI_QTZeK-62">
          <mxGeometry x="13" y="6" width="4" height="4" as="geometry" />
        </mxCell>
        <mxCell id="nlEW3K9Ex5rDqI_QTZeK-67" style="vsdxID=11901;fillColor=#7fba00;gradientColor=none;shape=stencil(vVHLDsIgEPwajiQI6RfU+h8bu22JCGRB2/69kG1iazx58DazM/vIjjBtmiCi0CplCjecbZ8nYc5Ca+snJJsLEqYTph0C4Ujh4XvmEaqzont41gkL96naodXKrGF6YSfQtUi0OXXDVlqPfJNP6usotUhYbJIUMmQb/GGrAxpRljVycDBuc1hKM2LclX8/7H9nFfB+82Cd45T2+mcspcSRmu4F);strokeColor=none;spacingTop=-3;spacingBottom=-3;spacingLeft=-3;spacingRight=-3;points=[];labelBackgroundColor=none;rounded=0;html=1;whiteSpace=wrap;" vertex="1" parent="nlEW3K9Ex5rDqI_QTZeK-62">
          <mxGeometry x="20" y="6" width="4" height="4" as="geometry" />
        </mxCell>
        <UserObject label="" tags="Background" id="nlEW3K9Ex5rDqI_QTZeK-68">
          <mxCell style="vsdxID=11902;fillColor=none;gradientColor=none;strokeColor=none;spacingTop=-3;spacingBottom=-3;spacingLeft=-3;spacingRight=-3;points=[];labelBackgroundColor=none;rounded=0;html=1;whiteSpace=wrap;" vertex="1" parent="1">
            <mxGeometry x="272" y="543" width="48" height="48" as="geometry" />
          </mxCell>
        </UserObject>
        <mxCell id="nlEW3K9Ex5rDqI_QTZeK-69" style="vsdxID=11903;fillColor=none;gradientColor=none;strokeColor=none;spacingTop=-3;spacingBottom=-3;spacingLeft=-3;spacingRight=-3;points=[];labelBackgroundColor=none;rounded=0;html=1;whiteSpace=wrap;" vertex="1" parent="nlEW3K9Ex5rDqI_QTZeK-68">
          <mxGeometry width="48" height="48" as="geometry" />
        </mxCell>
        <mxCell id="nlEW3K9Ex5rDqI_QTZeK-70" style="vsdxID=11904;fillColor=#59b4d9;gradientColor=none;shape=stencil(hZRNcoMwDIVPw1ZjSzaW12lyj0xDClMKGULa5PaF2vxYbejOfujxybLkjHbX8ngpMlTXvmvfi6/q1JcZvWSIVVMWXdUPq4z2Ge3ObVe8de2tOYX95ThGjquP9nP8wz34kID16EL1CAohUP6jHILh9dYFh46WHJSLlihpAo9BumP8DQPZGBUlFSMobC0BcYygdcQTbu5nyMRVKZMJUKdM7cBwyl1H0Zws0xZ77YmS0WDEmRnB5ynfEORe8BGc4BsL3m7xPc7HmPkO0KZ8rVRKtwwCvoREwSEwbqEXx1QLBy7leg1Iou5K3DaryfUQqURuXTXrvrRgp1L+Gf4rTQ2W0kSXHNIGnHJkA8alWYri5DYm/QSq5iuYb4UBRVfo4eSckmmYF9GV60GculJOoijR/6M7LJbBP1d1Hd6N9Xf5UAxSeGRo/w0=);strokeColor=none;strokeWidth=17;spacingTop=-3;spacingBottom=-3;spacingLeft=-3;spacingRight=-3;points=[];labelBackgroundColor=none;rounded=0;html=1;whiteSpace=wrap;" vertex="1" parent="nlEW3K9Ex5rDqI_QTZeK-69">
          <mxGeometry x="9" width="38" height="29" as="geometry" />
        </mxCell>
        <mxCell id="nlEW3K9Ex5rDqI_QTZeK-71" style="vsdxID=11905;fillColor=#a0a1a2;gradientColor=none;shape=stencil(zZfRdqMgEIafxsvMAQYYve627+FpTeJpNuaYdGvffknVyGCQeJc7wVF+PmDmJ8OX8748VZkS50vbfFbf9cdln+GfTKn6uK/a+uKeMnzN8GXbtNWubb6OH337VF4jr09/m3/XP3T9d1KI6zdK/PRtC5Z+O9766Pevtg+XYfzQgX2zU32zIMiHgKFniO9wCDAg1RCBfsQw4KE+evJsDqpgAsWSOkuguTzB5VkLJtQHaLhEayA3gUQo0B+4bN/d27abPhj+2g4yCwFikNIxJT8Bx25TdvV50zaX8lI3RxZ7KNtdtXFjbbaHcsdenb+r6uR1yzhDdHNewRAN0CJD1JBTiqELkqsYag2KI7QCnoSgvi3vIwDVOJEIP8HZIQcnOLTwPHJhnIhCQFxSFhxdNy9jAm2gLJenDNg8kHjrGVXOZPK1VQRW8sVFAnqS1eUD61QGDCBqum2OOERdgJApiEbECcoccssJuoUhekaCtHg6AnwkQakUPlKz/DLHR+HuDwgKCLagRMjlMwIsVp7jgjjAKQGpcCY4S2jIQ+5XEAkk77KJ1RAFlmucJIxpD0EHMosCbLqMuCixeED9+iTnfx7Hn8pcjJJfOB/BZN2UVmGyGjCByVkLiUlMdxxLEpNvheKYPEcVw+R7tEcw+Q7wIUyep4xhmmzpzYdykVPAyCc8ZFxk6ItptTEmAzqA6fhSQJPcFlBcqosau6K5bYbI+/M4vpc0Y5T87BsDRQtLGVIyKZ0zSkbdNsMCJeO8Y5GkZJZ30RyRX5ZjiPz6HkM08wzLlHBR5wyRyoHyJKKrxzJJRMn73R1KvgOMUfKtZIzSzJ4uU1rHNIx2D9OVd1sfDv2N2X8fXpFdV3+9xtf/);strokeColor=none;strokeWidth=17;spacingTop=-3;spacingBottom=-3;spacingLeft=-3;spacingRight=-3;points=[];labelBackgroundColor=none;rounded=0;html=1;whiteSpace=wrap;" vertex="1" parent="nlEW3K9Ex5rDqI_QTZeK-69">
          <mxGeometry y="19" width="39" height="28" as="geometry" />
        </mxCell>
        <mxCell id="nlEW3K9Ex5rDqI_QTZeK-72" style="vsdxID=11906;fillColor=#dd5900;gradientColor=none;shape=stencil(nZBRDoQgDERP03+WHsHFe5iISyOCQdT19kIaIxq//Jtp3zTpAFaTaUYNUkwx+F6v1EYD+AUpyRkdKCYFqACrzgf9C352LfuxyWRWg1/yhT/nRE5IsZWuZtCSK8CPeI0e/hF+jV7AJM4PO7KWCyr390bSiNtEtQM=);strokeColor=none;strokeWidth=17;spacingTop=-3;spacingBottom=-3;spacingLeft=-3;spacingRight=-3;points=[];labelBackgroundColor=none;rounded=0;html=1;whiteSpace=wrap;" vertex="1" parent="nlEW3K9Ex5rDqI_QTZeK-69">
          <mxGeometry x="14" y="21" width="10" height="4" as="geometry" />
        </mxCell>
        <mxCell id="nlEW3K9Ex5rDqI_QTZeK-73" style="vsdxID=11907;fillColor=#ba141a;gradientColor=none;shape=stencil(pZPdEoIgEIWfhlsGWAW7NnsPZ8RkMnEQ+3n7JKZJMivtbnf5zs5ZWBCkXZW3EjHSWaMP8qwKWyHYIsZUU0mj7BAhyBCkpTZyb3TfFD5vc0e66KhPrsPF6wTBTDgVI1dfIfds5+FaNSOYErIWjSjmYh6f2lgsCMyEQ/7smm2wgPXwF8+LbuSD53A4iDGNAjhOMMB8Zx7hhP8neLzuW3xqaCE+sTMEz/0tVV379R+fv+77UPJ/BbIb);strokeColor=none;strokeWidth=17;spacingTop=-3;spacingBottom=-3;spacingLeft=-3;spacingRight=-3;points=[];labelBackgroundColor=none;rounded=0;html=1;whiteSpace=wrap;" vertex="1" parent="nlEW3K9Ex5rDqI_QTZeK-69">
          <mxGeometry x="1" y="21" width="35" height="11" as="geometry" />
        </mxCell>
        <mxCell id="nlEW3K9Ex5rDqI_QTZeK-74" style="vsdxID=11908;fillColor=#dd5900;gradientColor=none;shape=stencil(nZBRDoQgDERP03+WHsHFe5iISyOCQdT19kIaIxq//Jtp3zTpAFaTaUYNUkwx+F6v1EYD+AUpyRkdKCYFqACrzgf9C352LfuxyWRWg1/yhT/nRE5IsZWuZtCSK8CPeI0e/hF+jV7AJM4PO7KWCyr390bSiNtEtQM=);strokeColor=none;strokeWidth=17;spacingTop=-3;spacingBottom=-3;spacingLeft=-3;spacingRight=-3;points=[];labelBackgroundColor=none;rounded=0;html=1;whiteSpace=wrap;" vertex="1" parent="nlEW3K9Ex5rDqI_QTZeK-69">
          <mxGeometry x="1" y="34" width="10" height="4" as="geometry" />
        </mxCell>
        <mxCell id="nlEW3K9Ex5rDqI_QTZeK-75" style="vsdxID=11909;fillColor=#ba141a;gradientColor=none;shape=stencil(pZRNDoMgEIVPw5YgY8Gurb2HiVhJrRi1f7evhDQVCRLsboDvMW9gMgjysSl7gSgZp0FdxVNWU4PghCiVXSMGOc0RggJBXqtBXAZ17yqz7ktN6uimHvqGl9ERraDkvVydDdjKbgHSI+awH6YMA/ULyH7YsmEXBwecpBbMAbPMfzNLccb+EyRk411cQ5G4Y8cumBNMuSUAhrPUn+GbfifOACfMj7t2ogWOoVDBG8+5dh+BBjrStREtiGrjwDe5XRktCHyUayla4Fiag9+UqmXbmiG3PF9PtXnLTEQoPg==);strokeColor=none;strokeWidth=17;spacingTop=-3;spacingBottom=-3;spacingLeft=-3;spacingRight=-3;points=[];labelBackgroundColor=none;rounded=0;html=1;whiteSpace=wrap;" vertex="1" parent="nlEW3K9Ex5rDqI_QTZeK-69">
          <mxGeometry x="1" y="27" width="35" height="18" as="geometry" />
        </mxCell>
        <mxCell id="nlEW3K9Ex5rDqI_QTZeK-76" style="vsdxID=11910;fillColor=#dd5900;gradientColor=none;shape=stencil(nZBRDoQgDERP03+WHsHFe5iISyOCQdT19kIaIxq//Jtp3zTpAFaTaUYNUkwx+F6v1EYD+AUpyRkdKCYFqACrzgf9C352LfuxyWRWg1/yhT/nRE5IsZWuZtCSK8CPeI0e/hF+jV7AJM4PO7KWCyr390bSiNtEtQM=);strokeColor=none;strokeWidth=17;spacingTop=-3;spacingBottom=-3;spacingLeft=-3;spacingRight=-3;points=[];labelBackgroundColor=none;rounded=0;html=1;whiteSpace=wrap;" vertex="1" parent="nlEW3K9Ex5rDqI_QTZeK-69">
          <mxGeometry x="26" y="41" width="10" height="4" as="geometry" />
        </mxCell>
        <mxCell id="nlEW3K9Ex5rDqI_QTZeK-77" style="vsdxID=11911;fillColor=#ba141a;gradientColor=none;shape=stencil(nZBRDoQgDERP03+WHsHFe5iISyOCQdT19kIaIxq//Jtp3zTpAFaTaUYNUkwx+F6v1EYD+AUpyRkdKCYFqACrzgf9C352LfuxyWRWg1/yhT/nRE5IsZWuZtCSK8CPeI0e/hF+jV7AJM4PO7KWCyr390bSiNtEtQM=);strokeColor=none;strokeWidth=17;spacingTop=-3;spacingBottom=-3;spacingLeft=-3;spacingRight=-3;points=[];labelBackgroundColor=none;rounded=0;html=1;whiteSpace=wrap;" vertex="1" parent="nlEW3K9Ex5rDqI_QTZeK-69">
          <mxGeometry x="1" y="41" width="10" height="4" as="geometry" />
        </mxCell>
        <UserObject label="&lt;div style=&quot;font-size: 1px&quot;&gt;&lt;/div&gt;" tags="Background" id="nlEW3K9Ex5rDqI_QTZeK-79">
          <mxCell style="verticalAlign=middle;align=center;overflow=width;vsdxID=11913;fillColor=#b1dafb;gradientColor=none;shape=stencil(nZBLDoAgDERP0z3SIyjew0SURgSD+Lu9kMZoXLhwN9O+tukAlrNpJg1SzDH4QW/URgNYgZTkjA4UkwJUgGXng+6DX1zLfmoymdXo17xh5zmRJ6Q42BWCfc2oJfdAr+Yv+AP9Cb7OJ3H/2JG1HNGz/84klThPVCc=);strokeColor=#6b859a;points=[[1,0.5,0],[0.5,0,0],[0.5,0.5,0],[0.5,0.5,0]];labelBackgroundColor=none;rounded=0;html=1;whiteSpace=wrap;" vertex="1" parent="1">
            <mxGeometry x="254" y="233" width="160" height="60" as="geometry" />
          </mxCell>
        </UserObject>
        <UserObject label="&lt;div style=&quot;font-size: 1px&quot;&gt;&lt;/div&gt;" tags="Background" id="nlEW3K9Ex5rDqI_QTZeK-80">
          <mxCell style="verticalAlign=middle;align=center;overflow=width;vsdxID=11914;fillColor=#ffffff;gradientColor=none;shape=stencil(nZBLDoAgDERP0z3SIyjew0SURgSD+Lu9kMZoXLhwN9O+tukAlrNpJg1SzDH4QW/URgNYgZTkjA4UkwJUgGXng+6DX1zLfmoymdXo17xh5zmRJ6Q42BWCfc2oJfdAr+Yv+AP9Cb7OJ3H/2JG1HNGz/84klThPVCc=);strokeColor=#6b859a;points=[[1,0.5,0],[0.5,0,0],[0.5,0.5,0],[0.5,0.5,0]];labelBackgroundColor=none;rounded=0;html=1;whiteSpace=wrap;" vertex="1" parent="1">
            <mxGeometry x="254" y="293" width="160" height="60" as="geometry" />
          </mxCell>
        </UserObject>
        <UserObject label="" tags="Background" id="nlEW3K9Ex5rDqI_QTZeK-81">
          <mxCell style="vsdxID=11936;fillColor=#fbe5d5;gradientColor=none;shape=stencil(rVFbDsIgEDwNnyQU4glqvcfGblsilmZBS28vZGMsxg9j/JvZmX1kR5g2TLCg0CpE8hdcbR8nYY5CaztPSDZmJEwnTDt4wpH8be6ZL1CcBV39vUxI3KdKh1YbswPTEzuBzlmiVGmKau9zUKM+jlJJQrJBko8QrZ+rrQ5oRJnXyMHBWElhRVx25ebnw/5zVvPFWRm83jxY5zilvf4eSy5xpKZ7AA==);strokeColor=#ed7d31;points=[[0.5,0,0],[0.5,0.5,0],[0.5,0.5,0],[0.5,0.5,0],[1,0.5,0],[0.15,0.85,0],[0.85,0.85,0],[0.85,0.15,0],[0.15,0.15,0]];labelBackgroundColor=none;rounded=0;html=1;whiteSpace=wrap;" vertex="1" parent="1">
            <mxGeometry x="311" y="303" width="40" height="40" as="geometry" />
          </mxCell>
        </UserObject>
        <mxCell id="nlEW3K9Ex5rDqI_QTZeK-82" value="&lt;div style=&quot;font-size: 1px&quot;&gt;&lt;font style=&quot;font-size:14.11px;font-family:Segoe UI Semibold;color:#ed7d31;direction:ltr;letter-spacing:0px;line-height:120%;opacity:1&quot;&gt;&lt;b&gt;2&lt;br/&gt;&lt;/b&gt;&lt;/font&gt;&lt;/div&gt;" style="text;vsdxID=11936;fillColor=none;gradientColor=none;strokeColor=none;points=[[0.5,0,0],[0.5,0.5,0],[0.5,0.5,0],[0.5,0.5,0],[1,0.5,0],[0.15,0.85,0],[0.85,0.85,0],[0.85,0.15,0],[0.15,0.15,0]];labelBackgroundColor=none;rounded=0;html=1;whiteSpace=wrap;verticalAlign=middle;align=center;overflow=width;;html=1;" vertex="1" parent="nlEW3K9Ex5rDqI_QTZeK-81">
          <mxGeometry x="2.5" y="5" width="35" height="30" as="geometry" />
        </mxCell>
        <UserObject label="" tags="Background" id="nlEW3K9Ex5rDqI_QTZeK-83">
          <mxCell style="vsdxID=11937;fillColor=none;gradientColor=none;strokeColor=none;spacingTop=-3;spacingBottom=-3;spacingLeft=-3;spacingRight=-3;points=[];labelBackgroundColor=none;rounded=0;html=1;whiteSpace=wrap;" vertex="1" parent="1">
            <mxGeometry x="264" y="238" width="44" height="44" as="geometry" />
          </mxCell>
        </UserObject>
        <mxCell id="nlEW3K9Ex5rDqI_QTZeK-84" style="vsdxID=11938;fillColor=none;gradientColor=none;strokeColor=none;spacingTop=-3;spacingBottom=-3;spacingLeft=-3;spacingRight=-3;points=[];labelBackgroundColor=none;rounded=0;html=1;whiteSpace=wrap;" vertex="1" parent="nlEW3K9Ex5rDqI_QTZeK-83">
          <mxGeometry width="44" height="44" as="geometry" />
        </mxCell>
        <mxCell id="nlEW3K9Ex5rDqI_QTZeK-85" style="vsdxID=11939;fillColor=#57a300;gradientColor=none;shape=stencil(fZTRcoMgEEW/hlcGFtDwnCb/kUlMdWo1Y0yrfx8sKOxafUNcvMu512Xq+Cwvj4KBePZd+1X8Vre+ZOqDAVRNWXRV71ZMnZg63tuu+OzaV3Pzz4/LVDmtvtuf6QuDP6ctt9MhEKPfkEL8PZ999fXV+XIZ6nNuQr3EB8QAocRwKUNN2LJBY1ChRHE1l4Qtm3NIheuqSdoEnuM2TcazvT4lbtJofsBdCtyhAa5xjwL3Z3axCCznKGVYjgBxjADLJTeMkPQ2kRTh/IXDrnOJLRjSYlz0FkNabIthQZA2FB1ThQVJUpwrmcWKEis6mzWRJNfEVKYUYSqO025Q5miOEZPGXS4BH2HlrqIlS1pwmlfxFCQxjhVJjCVkjMGa6VUjrR02Kcv//7mVgYk/BNcAK48pru3UkBnjFnE83au69tMtfU/Hmdvyo1Cd3g==);strokeColor=none;strokeWidth=17;spacingTop=-3;spacingBottom=-3;spacingLeft=-3;spacingRight=-3;points=[];labelBackgroundColor=none;rounded=0;html=1;whiteSpace=wrap;" vertex="1" parent="nlEW3K9Ex5rDqI_QTZeK-84">
          <mxGeometry width="44" height="44" as="geometry" />
        </mxCell>
        <mxCell id="nlEW3K9Ex5rDqI_QTZeK-86" style="vsdxID=11940;fillColor=#FFFFFF;gradientColor=none;shape=stencil(vZTBcoMgEIafhqMMskrCOU3eg2lQmVhxVtKkb18ozCRIJ7d4W//9Fz4XWAKHZVCzJpwtDu1F38zZDQQ+COdmGjQa5yMCRwKHzqLu0V6nc/yeVXCG6Mt+hxXusW7PqBChirOfpEi6+xNO0a/w0ycx+VtGeRv9mAoaSfc8Sg8Ta7NFa8aSo1J3s1RonXLGTjGbcqPCXld+v6obVZ+llpvW85NcvySEklDmhF5Y/bWvkhsiNiWhyAhrSUGsekhhK8LAAwVimxE2RRM3PeN/OpgfcXkJJRV8Q8SmLhF3GeOL1/cWRB88BkFnxjHOkef8enB4KQ4dOP4C);strokeColor=none;strokeWidth=17;spacingTop=-3;spacingBottom=-3;spacingLeft=-3;spacingRight=-3;points=[];labelBackgroundColor=none;rounded=0;html=1;whiteSpace=wrap;" vertex="1" parent="nlEW3K9Ex5rDqI_QTZeK-84">
          <mxGeometry x="15" y="4" width="13" height="13" as="geometry" />
        </mxCell>
        <mxCell id="nlEW3K9Ex5rDqI_QTZeK-87" style="vsdxID=11941;fillColor=#FFFFFF;gradientColor=none;fillOpacity=15;strokeOpacity=15;shape=stencil(lVNBcoMwDHyNrxpLwmDOafqPTEOKpxQyDmmT38fUJliZ0kxv8mrlXS9I8ebU7o6NIn0a/fDRfLv92Cp+UUSubxvvxlAp3ireHAbfvPvh3O/j+bibmFP1OXxNN1zinEWo6mmK9DUiDIZ+gNfIfzv7OICxX9WA80SCEKiMyIUSyUBFiZQgnRicGARkEoNzxopsaRejKG9MAqUBftDMjCWNkhZj/PuDO9dnARWgjcjHFE8CQiiMNGpKqKw0q6VRU4OVRrU0GXxb/EtVS8kQhmUpmfmie6a2kLLZc+cPhYC4ng9XQFYEhFqv0+fmnVwDm3X689/zv/xQLLtwcF0XVynvP+5OgOLe8fYG);strokeColor=none;strokeWidth=17;spacingTop=-3;spacingBottom=-3;spacingLeft=-3;spacingRight=-3;points=[];labelBackgroundColor=none;rounded=0;html=1;whiteSpace=wrap;" vertex="1" parent="nlEW3K9Ex5rDqI_QTZeK-84">
          <mxGeometry width="31" height="35" as="geometry" />
        </mxCell>
        <mxCell id="nlEW3K9Ex5rDqI_QTZeK-88" style="vsdxID=11942;fillColor=#FFFFFF;gradientColor=none;shape=stencil(UzV2Ls5ILEhVNTIoLinKz04tz0wpyVA1dlE1MsrMy0gtyiwBslSNXVWNndPyi1LTi/JL81Ig/IJEkEoQKze/DGRCBUSfqQFIi5FBJYRraADhu0HU5mTmIamFScIUm5vqGZjiVm5momdsSZkGPI4xNtGzMCVfMQGnkORR/GEIZCACPy0zJwcSd8jy6JEFFIJEtLErAA==);strokeColor=none;strokeWidth=17;spacingTop=-3;spacingBottom=-3;spacingLeft=-3;spacingRight=-3;points=[];labelBackgroundColor=none;rounded=0;html=1;whiteSpace=wrap;" vertex="1" parent="nlEW3K9Ex5rDqI_QTZeK-84">
          <mxGeometry x="16" y="17" width="11" height="23" as="geometry" />
        </mxCell>
        <mxCell id="nlEW3K9Ex5rDqI_QTZeK-89" style="vsdxID=11943;fillColor=#FFFFFF;gradientColor=none;shape=stencil(nZFNDsIgEIVPw5ZQphVd13qPJqVCxNJQ/Lu9EGIRUlm4m4HvDY95CNpF9DNHlCzW6At/yMEKBEdEqZwEN9K6CkGHoB214Wejb9MQ+rn3pK+u+u4nPIOuIsRrKHml/SnASk4FGBrM6t84Y3iX8M0eV1AYf8A1SwQFL5ntVboJx4c/gtXbJh8/9tdeMtgVcf2jVCqk932fx+WOQtTQvQE=);strokeColor=none;strokeWidth=17;spacingTop=-3;spacingBottom=-3;spacingLeft=-3;spacingRight=-3;points=[];labelBackgroundColor=none;rounded=0;html=1;whiteSpace=wrap;" vertex="1" parent="nlEW3K9Ex5rDqI_QTZeK-84">
          <mxGeometry x="22" y="17" width="13" height="13" as="geometry" />
        </mxCell>
        <mxCell id="nlEW3K9Ex5rDqI_QTZeK-90" style="vsdxID=11944;fillColor=#FFFFFF;gradientColor=none;shape=stencil(jZHdDoMgDIWfhtsGqBO8du49TMRJ5sQg+3v7SZptYuLi3Wn7nZOmZVhOXT0aJvkUvLuYh21Cx/DIpLRDZ7wNs2JYMSxb583Zu9vQUD3WkYzq6u4x4Uk+Hh2Sv6gSnOoTob0dFmiOEGd78UyAKBJcKSjUtuGT9k0vQOTbuOags8TwZxkpgWMCHzRosW1IV8EclN4Lr64yi9/xW9v39LvlfP2suUWPxuoN);strokeColor=none;strokeWidth=17;spacingTop=-3;spacingBottom=-3;spacingLeft=-3;spacingRight=-3;points=[];labelBackgroundColor=none;rounded=0;html=1;whiteSpace=wrap;" vertex="1" parent="nlEW3K9Ex5rDqI_QTZeK-84">
          <mxGeometry x="9" y="16" width="13" height="13" as="geometry" />
        </mxCell>
        <mxCell id="nlEW3K9Ex5rDqI_QTZeK-91" style="vsdxID=11945;fillColor=#59b4d9;gradientColor=none;shape=stencil(xZTbEoIgEIafhksZBLW47vAeTKEymTgrnd4+CJranOkuu1v3/xc+WVgiVmOrBk04Gx3Yg76YvWuJWBPOTd9qMM5HRGyIWNUWdAP21O/j96CCM0RHew4rXGPdktGqDFWc3VJG0sUjsY1+BTsvQvKXjAYt+CEVFL5AxtTLxPCiOWPJkamrGTOwTjlj+6gmrVPQ6Mzvl9WdapA0XrQe3tL5V0IxJVxiQkllhf/aV8k5EeUE8UmUTLmkovo4RCrmQgw8xQSxzBFiMOE+z9rlaZMXuMn+Ghb4BCWt+J+7XCLGL+/vJ4g+eI2C2nRdnCTv+ufo8Kk4dsTmDg==);strokeColor=none;strokeWidth=17;spacingTop=-3;spacingBottom=-3;spacingLeft=-3;spacingRight=-3;points=[];labelBackgroundColor=none;rounded=0;html=1;whiteSpace=wrap;" vertex="1" parent="nlEW3K9Ex5rDqI_QTZeK-84">
          <mxGeometry x="16" y="5" width="11" height="12" as="geometry" />
        </mxCell>
        <mxCell id="nlEW3K9Ex5rDqI_QTZeK-92" style="vsdxID=11946;fillColor=#FFFFFF;gradientColor=none;shape=stencil(vVnJcttIDP0aHY3qbvR6zmT+Q5XItmo0lktWJvLfD1gk0AIoMReZN5tCE6+xPCzc4LeP1+37bhPcx/l0/Gf3e//z/LrBvzYh7N9ed6f9mf7a4PcNfns+nnYvp+Ovt5/j/+/bQXL469/jf8MbLuO54iAMh4L7HB/kBHF88vcovz39oF9Pk7z3UHE8cJpO+ACxjo8moZqhFP3WAiVNMk/by/7j6XQ8b8/749v4uxt/O2xPL7sn0vj0fNi+qJ8+fu9277PHE8Yfv07jpfwEoICLEwAvCNL06BJEKkygPoNIhQn5BUUqtkkKRcrhkv4WoDStnwzditbfMsSs9ReElLX+ViGh1l8SuLSov4FPRj8CWv1NlIl+D8Xo984Z7Q5cvR8hg8HY+xwi6OheQcVIc5BMjATAh4aIXwxjdtB1GKOCWKu4bJJJDjA8FKNbxljmGL3CSG4tqDDGAv6xdlzAGBvprxpkCg6qdnZKkLxCGbptv8LbNiEoY7IhBE+EwJTEhNCgGULwDQLfBedSaKVuWomu77MxUgVvSDOA01TsHeQVSXPgHtQ2ap0NmSApA6I2UeOCIRaKSc6JhQpURRqH/dtVGRpOZH15OlAWAg+rqGWbRmIQgTKFGflKG9WtF3ShCKOwQSkzTBEKEVrTBvVsKjFoCD18p0cIPiwqz1KVuzeLCXj0kE0F8HQuau1Y+qs6oKa8o91JJ5I2O+F1S3zsAiRLyK5C0GxHak2YYJZk/Hq2o4LtvQXpe12dQDqJQgbZ5NwKZSOD4ZqB6bQdfQfdIUrhX4FrMqDpj6ggRJMauTdRnY3RBCfdzcSmjxzUt8m4cPsiBiJSM4FGeaHtM0TeF1ZVax/X/dPJRIpqUC9m42CC2kzmCt18dmrOC5WKgoeL4lX0cJfKFgSnkzBXwNVajkqNrAlw6jibbt2IQpOCSL0cM+ga/gsz/1HXgMzqYSZ01YAYFwYpBuxC6pzLYt1JnXyZ+eOskFeZ46SO0+xj6o6/6knMOHDTN5RI2UyHGTtBT29IPa+l83iwcxbt4+vMO4SgmtpIOWgLM0nZVodSLJpmsATOhttFxM065pZ6Zeb2BrSJhon2C/nZVmNo0bCA7+Mzd1s8BLt+jbBemSOMdY5R99R5VucoyHFFHhhmWuZKzsU8W0RQjngzd5Atk1lEkJRlgsgd+72WntSnP6ovDao36vOsltTU34VW6t4eJst2yc9fzLqcDKyi3kMwdb6F3jL0zUyJi+pbpy9+VGWbc3V9kbriYaM/p+7JbpGirj+PUNstetuJkVPRZLpnm62SRNWuGLwt97HaYlpqT7QVMKKMUb3rJp81hZJGGadXDOQxHilWWChlmdWv2+5iMRaNkWzrHotxkY4w9Ol9ehRLr2lBpJqZCons7V4QkTvJ3lzKfHRnodVuLI/7KHARRJx8n6KqPjbeFvsDAlAMaRMC9hxbiaSMkfBqyYndumZ5S1KolrdmE1L6dsne/u6Be+a61yBGMKuB6PremYsS9X6mPSX/mqJAnX8zrJgCh/3draadTwPo1mLho8SXpIk26J8/idAf/XvK8/5wGD/HXP9uv7/Qo/HbDX7/Hw==);strokeColor=none;strokeWidth=17;spacingTop=-3;spacingBottom=-3;spacingLeft=-3;spacingRight=-3;points=[];labelBackgroundColor=none;rounded=0;html=1;whiteSpace=wrap;" vertex="1" parent="nlEW3K9Ex5rDqI_QTZeK-84">
          <mxGeometry x="17" y="5" width="10" height="10" as="geometry" />
        </mxCell>
        <UserObject label="&lt;div style=&quot;font-size: 1px&quot;&gt;&lt;p style=&quot;text-align:left;margin-left:0;margin-right:0;margin-top:0px;margin-bottom:0px;text-indent:0;vertical-align:middle;direction:ltr;&quot;&gt;&lt;font style=&quot;font-size:14.11px;font-family:Segoe UI Semibold;color:#6b859a;direction:ltr;letter-spacing:0px;line-height:120%;opacity:1&quot;&gt;&lt;b&gt;Front Door / App Gwy&lt;br/&gt;&lt;/b&gt;&lt;/font&gt;&lt;/p&gt;&lt;/div&gt;" tags="Background" id="nlEW3K9Ex5rDqI_QTZeK-93">
          <mxCell style="verticalAlign=middle;align=left;overflow=width;vsdxID=11947;fillColor=none;gradientColor=none;shape=stencil(nZBLDoAgDERP0z3SIyjew0SURgSD+Lu9kMZoXLhwN9O+tukAlrNpJg1SzDH4QW/URgNYgZTkjA4UkwJUgGXng+6DX1zLfmoymdXo17xh5zmRJ6Q42BWCfc2oJfdAr+Yv+AP9Cb7OJ3H/2JG1HNGz/84klThPVCc=);strokeColor=none;points=[];labelBackgroundColor=none;rounded=0;html=1;whiteSpace=wrap;" vertex="1" parent="1">
            <mxGeometry x="318" y="232" width="92" height="60" as="geometry" />
          </mxCell>
        </UserObject>
        <UserObject label="" tags="Background" id="nlEW3K9Ex5rDqI_QTZeK-94">
          <mxCell style="vsdxID=11948;fillColor=none;gradientColor=none;strokeColor=none;spacingTop=-3;spacingBottom=-3;spacingLeft=-3;spacingRight=-3;points=[];labelBackgroundColor=none;rounded=0;html=1;whiteSpace=wrap;" vertex="1" parent="1">
            <mxGeometry x="422" y="200" width="23" height="32" as="geometry" />
          </mxCell>
        </UserObject>
        <mxCell id="nlEW3K9Ex5rDqI_QTZeK-95" style="vsdxID=11949;fillColor=none;gradientColor=none;strokeColor=none;spacingTop=-3;spacingBottom=-3;spacingLeft=-3;spacingRight=-3;points=[];labelBackgroundColor=none;rounded=0;html=1;whiteSpace=wrap;" vertex="1" parent="nlEW3K9Ex5rDqI_QTZeK-94">
          <mxGeometry width="23" height="32" as="geometry" />
        </mxCell>
        <mxCell id="nlEW3K9Ex5rDqI_QTZeK-96" style="vsdxID=11950;fillColor=#0072c6;gradientColor=none;shape=stencil(jVTLcoMwDPwaXzW2/MLnNPmPTEMKUxoyhLT07wu1GVvqhOZmSSvvWg8Lvbs1x2stUN7GoX+vv9rT2Aj9IhDbS1MP7TifhN4LvTv3Q/029PfLKdrX44JcTh/953LDFPMqC2iXLJTf0aMQJP56DjHh9T7EDBUB1oIKKSW5AriYIidMIJkQyU7mpFlYl+FHhJKySUplNChP2eY3GKSMjDAjEmnXXoqySFISp8HrLYVMoAsQDBMJzlCN3oK3VKNSgFRmJcG7LWa0EBxrBoKqtruh5D/9WAFPdiTfxwlWxkpD8Oy1kpH+KTPtScY/aCFXGQxYw4QWg7Eqy8NbjA+y8Sn3JI8QXRQq94nNmg95L89t18W1LuN8j2dX/AP0/gc=);strokeColor=none;strokeWidth=17;spacingTop=-3;spacingBottom=-3;spacingLeft=-3;spacingRight=-3;points=[];labelBackgroundColor=none;rounded=0;html=1;whiteSpace=wrap;" vertex="1" parent="nlEW3K9Ex5rDqI_QTZeK-95">
          <mxGeometry width="23" height="32" as="geometry" />
        </mxCell>
        <mxCell id="nlEW3K9Ex5rDqI_QTZeK-97" style="vsdxID=11951;fillColor=#3999c6;gradientColor=none;fillOpacity=40;strokeOpacity=40;shape=stencil(lZLRboMwDEW/Jq+WHYcQnrv2P6qWjmgMqpRu9O8HMqhJVjTtzdwc+14sK97dmuO1VhpvQ+g/6m9/HhrFb0pr3zV18MNUKd4r3l36UL+H/t6d5ft6nMm5+uy/5gmj9JUMZm7S+BDBIFSiHIRvfRfxhJjgZMBVMX66B5lPAlgD5eqwSERQkUijFqlwYIuFWqTFZ+TfBMfEhm/MUzpx9USwJvWkAtilvph6PomX60mXU7r1RzdCYhrQWbBZRjDZWiqGLCExkMlSIm5nZAakJKfDdVcvG/57I3/zU/E8yItvW7nn+D0/4EmS4+f9Dw==);strokeColor=none;strokeWidth=17;spacingTop=-3;spacingBottom=-3;spacingLeft=-3;spacingRight=-3;points=[];labelBackgroundColor=none;rounded=0;html=1;whiteSpace=wrap;" vertex="1" parent="nlEW3K9Ex5rDqI_QTZeK-95">
          <mxGeometry width="20" height="25" as="geometry" />
        </mxCell>
        <mxCell id="nlEW3K9Ex5rDqI_QTZeK-98" style="vsdxID=11952;fillColor=none;gradientColor=none;strokeColor=none;spacingTop=-3;spacingBottom=-3;spacingLeft=-3;spacingRight=-3;points=[];labelBackgroundColor=none;rounded=0;html=1;whiteSpace=wrap;" vertex="1" parent="nlEW3K9Ex5rDqI_QTZeK-95">
          <mxGeometry x="2" y="3" width="18" height="25" as="geometry" />
        </mxCell>
        <mxCell id="nlEW3K9Ex5rDqI_QTZeK-99" style="vsdxID=11953;fillColor=#FFFFFF;gradientColor=none;fillOpacity=30;strokeOpacity=30;shape=stencil(nZLRDoIwDEW/Zq/L1jpwz6j/QWTIIjIyQPHvZdkURtRE39q7096kuwSzrspbRYB1vTVnddNFXxHcEQDdVMrqfqoI7glmpbHqZM3QFL5vc0e66mKubsPo55ibAHZfdgcP1rr5CIKkabKEj4P1a3mMh3bDqRReGsFLkgoZoKAIpDwNEAYfoEmAgpIAlfjNWQBlInbfCopp7M4Zi81fwtN6JlbC2/PM9I+X/A+civlHS13XPhDL93UCJsmnB/cP);strokeColor=none;strokeWidth=17;spacingTop=-3;spacingBottom=-3;spacingLeft=-3;spacingRight=-3;points=[];labelBackgroundColor=none;rounded=0;html=1;whiteSpace=wrap;" vertex="1" parent="nlEW3K9Ex5rDqI_QTZeK-98">
          <mxGeometry y="12" width="9" height="13" as="geometry" />
        </mxCell>
        <mxCell id="nlEW3K9Ex5rDqI_QTZeK-100" style="vsdxID=11954;fillColor=#FFFFFF;gradientColor=none;fillOpacity=70;strokeOpacity=70;shape=stencil(vZNNDoIwEIVP023TdiiBNeI9iBRpREoqKNxemiGBNmokJu7mvX79mZcpgexWF50igt16ay7qocu+JnAgQui2Vlb3c0UgJ5BVxqqzNUNbou4KR7rqau7uhBH3Sea2CDah5Az1EdnTYBHmAc19nI0iMKbFSICmYmEgZBYjBpqI7bWNbjdPXHnUUUKj9D0uf6GD/vewH3PdlWqQaQSUSz9VLqiM/VSDTFfiZSv/S/T7PD1yLtaRrXTT4MRv18MRny38HpA/AQ==);strokeColor=none;strokeWidth=17;spacingTop=-3;spacingBottom=-3;spacingLeft=-3;spacingRight=-3;points=[];labelBackgroundColor=none;rounded=0;html=1;whiteSpace=wrap;" vertex="1" parent="nlEW3K9Ex5rDqI_QTZeK-98">
          <mxGeometry width="18" height="25" as="geometry" />
        </mxCell>
        <mxCell id="nlEW3K9Ex5rDqI_QTZeK-101" style="vsdxID=11955;fillColor=#FFFFFF;gradientColor=none;fillOpacity=30;strokeOpacity=30;shape=stencil(nVLbDoIwDP2avS6jAzaeUf+DyJBFZGSA4t/LLLeZSIxv7ek5W09bwtO2zBpFgLWdNVf10HlXEn4gALouldXdGBF+JDwtjFUXa/o6x7zJHNNFN3N3LwyoixMqY6cC9kQEQhrKN3JCwbm3qAiQEDAKYpLMULJAAyDEJoafDtyveun0X6XrTYPMay5gO9S5+BcZIhrBnm2ZUBb6tlfNYltIKoRvHSLf+3bk/MvM/V5/WNIYrCsudFXhhWzrnycxQnhO/PgC);strokeColor=none;strokeWidth=17;spacingTop=-3;spacingBottom=-3;spacingLeft=-3;spacingRight=-3;points=[];labelBackgroundColor=none;rounded=0;html=1;whiteSpace=wrap;" vertex="1" parent="nlEW3K9Ex5rDqI_QTZeK-98">
          <mxGeometry x="9" width="9" height="12" as="geometry" />
        </mxCell>
        <UserObject label="&lt;div style=&quot;font-size: 1px&quot;&gt;&lt;/div&gt;" tags="Background" id="nlEW3K9Ex5rDqI_QTZeK-102">
          <mxCell style="verticalAlign=middle;align=center;overflow=width;vsdxID=11956;fillColor=#b1dafb;gradientColor=none;shape=stencil(nZBLDoAgDERP0z3SIyjew0SURgSD+Lu9kMZoXLhwN9O+tukAlrNpJg1SzDH4QW/URgNYgZTkjA4UkwJUgGXng+6DX1zLfmoymdXo17xh5zmRJ6Q42BWCfc2oJfdAr+Yv+AP9Cb7OJ3H/2JG1HNGz/84klThPVCc=);strokeColor=#6b859a;points=[[1,0.5,0],[0.5,0,0],[0.5,0.5,0],[0.5,0.5,0]];labelBackgroundColor=none;rounded=0;html=1;whiteSpace=wrap;" vertex="1" parent="1">
            <mxGeometry x="-33" y="232" width="160" height="60" as="geometry" />
          </mxCell>
        </UserObject>
        <UserObject label="&lt;div style=&quot;font-size: 1px&quot;&gt;&lt;/div&gt;" tags="Background" id="nlEW3K9Ex5rDqI_QTZeK-103">
          <mxCell style="verticalAlign=middle;align=center;overflow=width;vsdxID=11957;fillColor=#ffffff;gradientColor=none;shape=stencil(nZBLDoAgDERP0z3SIyjew0SURgSD+Lu9kMZoXLhwN9O+tukAlrNpJg1SzDH4QW/URgNYgZTkjA4UkwJUgGXng+6DX1zLfmoymdXo17xh5zmRJ6Q42BWCfc2oJfdAr+Yv+AP9Cb7OJ3H/2JG1HNGz/84klThPVCc=);strokeColor=#6b859a;points=[[1,0.5,0],[0.5,0,0],[0.5,0.5,0],[0.5,0.5,0]];labelBackgroundColor=none;rounded=0;html=1;whiteSpace=wrap;" vertex="1" parent="1">
            <mxGeometry x="-33" y="292" width="160" height="60" as="geometry" />
          </mxCell>
        </UserObject>
        <UserObject label="&lt;div style=&quot;font-size: 1px&quot;&gt;&lt;font style=&quot;font-size:14.11px;font-family:Segoe UI Semibold;color:#6b859a;direction:ltr;letter-spacing:0px;line-height:120%;opacity:1&quot;&gt;&lt;b&gt;Internet&lt;br/&gt;&lt;/b&gt;&lt;/font&gt;&lt;/div&gt;" tags="Background" id="nlEW3K9Ex5rDqI_QTZeK-104">
          <mxCell style="verticalAlign=middle;align=center;overflow=width;vsdxID=11958;fillColor=none;gradientColor=none;shape=stencil(nZBLDoAgDERP0z3SIyjew0SURgSD+Lu9kMZoXLhwN9O+tukAlrNpJg1SzDH4QW/URgNYgZTkjA4UkwJUgGXng+6DX1zLfmoymdXo17xh5zmRJ6Q42BWCfc2oJfdAr+Yv+AP9Cb7OJ3H/2JG1HNGz/84klThPVCc=);strokeColor=none;points=[];labelBackgroundColor=none;rounded=0;html=1;whiteSpace=wrap;" vertex="1" parent="1">
            <mxGeometry x="-33" y="232" width="160" height="60" as="geometry" />
          </mxCell>
        </UserObject>
        <UserObject label="" tags="Background" id="nlEW3K9Ex5rDqI_QTZeK-105">
          <mxCell style="vsdxID=11960;fillColor=#fbe5d5;gradientColor=none;shape=stencil(rVFbDsIgEDwNnyQU4glqvcfGblsilmZBS28vZGMsxg9j/JvZmX1kR5g2TLCg0CpE8hdcbR8nYY5CaztPSDZmJEwnTDt4wpH8be6ZL1CcBV39vUxI3KdKh1YbswPTEzuBzlmiVGmKau9zUKM+jlJJQrJBko8QrZ+rrQ5oRJnXyMHBWElhRVx25ebnw/5zVvPFWRm83jxY5zilvf4eSy5xpKZ7AA==);strokeColor=#ed7d31;points=[[0.5,0,0],[0.5,0.5,0],[0.5,0.5,0],[0.5,0.5,0],[1,0.5,0],[0.15,0.85,0],[0.85,0.85,0],[0.85,0.15,0],[0.15,0.15,0]];labelBackgroundColor=none;rounded=0;html=1;whiteSpace=wrap;" vertex="1" parent="1">
            <mxGeometry x="314" y="94" width="40" height="40" as="geometry" />
          </mxCell>
        </UserObject>
        <mxCell id="nlEW3K9Ex5rDqI_QTZeK-106" value="&lt;div style=&quot;font-size: 1px&quot;&gt;&lt;font style=&quot;font-size:14.11px;font-family:Segoe UI Semibold;color:#ed7d31;direction:ltr;letter-spacing:0px;line-height:120%;opacity:1&quot;&gt;&lt;b&gt;3&lt;br/&gt;&lt;/b&gt;&lt;/font&gt;&lt;/div&gt;" style="text;vsdxID=11960;fillColor=none;gradientColor=none;strokeColor=none;points=[[0.5,0,0],[0.5,0.5,0],[0.5,0.5,0],[0.5,0.5,0],[1,0.5,0],[0.15,0.85,0],[0.85,0.85,0],[0.85,0.15,0],[0.15,0.15,0]];labelBackgroundColor=none;rounded=0;html=1;whiteSpace=wrap;verticalAlign=middle;align=center;overflow=width;;html=1;" vertex="1" parent="nlEW3K9Ex5rDqI_QTZeK-105">
          <mxGeometry x="2.5" y="5" width="35" height="30" as="geometry" />
        </mxCell>
        <UserObject label="" tags="Background" id="nlEW3K9Ex5rDqI_QTZeK-107">
          <mxCell style="vsdxID=11961;fillColor=#fbe5d5;gradientColor=none;shape=stencil(rVFbDsIgEDwNnyQU4glqvcfGblsilmZBS28vZGMsxg9j/JvZmX1kR5g2TLCg0CpE8hdcbR8nYY5CaztPSDZmJEwnTDt4wpH8be6ZL1CcBV39vUxI3KdKh1YbswPTEzuBzlmiVGmKau9zUKM+jlJJQrJBko8QrZ+rrQ5oRJnXyMHBWElhRVx25ebnw/5zVvPFWRm83jxY5zilvf4eSy5xpKZ7AA==);strokeColor=#ed7d31;points=[[0.5,0,0],[0.5,0.5,0],[0.5,0.5,0],[0.5,0.5,0],[1,0.5,0],[0.15,0.85,0],[0.85,0.85,0],[0.85,0.15,0],[0.15,0.15,0]];labelBackgroundColor=none;rounded=0;html=1;whiteSpace=wrap;" vertex="1" parent="1">
            <mxGeometry x="27" y="301" width="40" height="40" as="geometry" />
          </mxCell>
        </UserObject>
        <mxCell id="nlEW3K9Ex5rDqI_QTZeK-108" value="&lt;div style=&quot;font-size: 1px&quot;&gt;&lt;font style=&quot;font-size:14.11px;font-family:Segoe UI Semibold;color:#ed7d31;direction:ltr;letter-spacing:0px;line-height:120%;opacity:1&quot;&gt;&lt;b&gt;1&lt;br/&gt;&lt;/b&gt;&lt;/font&gt;&lt;/div&gt;" style="text;vsdxID=11961;fillColor=none;gradientColor=none;strokeColor=none;points=[[0.5,0,0],[0.5,0.5,0],[0.5,0.5,0],[0.5,0.5,0],[1,0.5,0],[0.15,0.85,0],[0.85,0.85,0],[0.85,0.15,0],[0.15,0.15,0]];labelBackgroundColor=none;rounded=0;html=1;whiteSpace=wrap;verticalAlign=middle;align=center;overflow=width;;html=1;" vertex="1" parent="nlEW3K9Ex5rDqI_QTZeK-107">
          <mxGeometry x="2.5" y="5" width="35" height="30" as="geometry" />
        </mxCell>
        <UserObject label="" tags="Background" id="nlEW3K9Ex5rDqI_QTZeK-109">
          <mxCell style="vsdxID=12078;edgeStyle=none;startArrow=none;endArrow=classic;startSize=5;endSize=5;strokeColor=#6b859a;spacingTop=0;spacingBottom=0;spacingLeft=0;spacingRight=0;verticalAlign=middle;html=1;labelBackgroundColor=#FFFFFF;rounded=0;exitX=0.5;exitY=0;exitDx=0;exitDy=0;exitPerimeter=0;entryX=0.5;entryY=1;entryDx=0;entryDy=0;entryPerimeter=0;" edge="1" parent="1" source="nlEW3K9Ex5rDqI_QTZeK-79" target="nlEW3K9Ex5rDqI_QTZeK-1">
            <mxGeometry relative="1" as="geometry">
              <Array as="points" />
            </mxGeometry>
          </mxCell>
        </UserObject>
        <UserObject label="" tags="Background" id="nlEW3K9Ex5rDqI_QTZeK-110">
          <mxCell style="vsdxID=11962;edgeStyle=none;startArrow=none;endArrow=classic;startSize=5;endSize=5;strokeColor=#6b859a;spacingTop=0;spacingBottom=0;spacingLeft=0;spacingRight=0;verticalAlign=middle;html=1;labelBackgroundColor=#FFFFFF;rounded=0;exitX=1;exitY=0.5166666666666667;exitDx=0;exitDy=0;exitPerimeter=0;entryX=0;entryY=0.5;entryDx=0;entryDy=0;entryPerimeter=0;" edge="1" parent="1" source="nlEW3K9Ex5rDqI_QTZeK-103" target="nlEW3K9Ex5rDqI_QTZeK-80">
            <mxGeometry relative="1" as="geometry">
              <Array as="points" />
            </mxGeometry>
          </mxCell>
        </UserObject>
        <mxCell id="nlEW3K9Ex5rDqI_QTZeK-111" vertex="1" parent="1">
          <mxGeometry x="460" y="618" as="geometry" />
        </mxCell>
        <UserObject label="" tags="Background" id="nlEW3K9Ex5rDqI_QTZeK-112">
          <mxCell style="vsdxID=11809;edgeStyle=none;startArrow=classic;endArrow=classic;startSize=5;endSize=5;strokeColor=#ffc000;spacingTop=0;spacingBottom=0;spacingLeft=0;spacingRight=0;verticalAlign=middle;html=1;labelBackgroundColor=#FFFFFF;rounded=0;exitX=0;exitY=0.5;exitDx=0;exitDy=0;exitPerimeter=0;" edge="1" parent="1" source="nlEW3K9Ex5rDqI_QTZeK-4" target="nlEW3K9Ex5rDqI_QTZeK-111">
            <mxGeometry relative="1" as="geometry">
              <Array as="points" />
            </mxGeometry>
          </mxCell>
        </UserObject>
        <mxCell id="nlEW3K9Ex5rDqI_QTZeK-113" value="" style="image;sketch=0;aspect=fixed;html=1;points=[];align=center;fontSize=12;image=img/lib/mscae/VM_Scale_Set.svg;" vertex="1" parent="1">
          <mxGeometry x="637" y="559" width="71" height="71" as="geometry" />
        </mxCell>
        <UserObject label="" tags="Background" id="nlEW3K9Ex5rDqI_QTZeK-116">
          <mxCell style="vsdxID=11962;edgeStyle=none;startArrow=none;endArrow=classic;startSize=5;endSize=5;strokeColor=#6b859a;spacingTop=0;spacingBottom=0;spacingLeft=0;spacingRight=0;verticalAlign=middle;html=1;labelBackgroundColor=#FFFFFF;rounded=0;" edge="1" parent="1">
            <mxGeometry relative="1" as="geometry">
              <Array as="points" />
              <mxPoint x="285" y="351" as="sourcePoint" />
              <mxPoint x="285" y="539" as="targetPoint" />
            </mxGeometry>
          </mxCell>
        </UserObject>
        <UserObject label="" tags="Background" id="nlEW3K9Ex5rDqI_QTZeK-117">
          <mxCell style="vsdxID=11809;edgeStyle=none;startArrow=classic;endArrow=classic;startSize=5;endSize=5;strokeColor=#ffc000;spacingTop=0;spacingBottom=0;spacingLeft=0;spacingRight=0;verticalAlign=middle;html=1;labelBackgroundColor=#FFFFFF;rounded=0;exitX=0.683;exitY=0;exitDx=0;exitDy=0;exitPerimeter=0;" edge="1" parent="1" source="nlEW3K9Ex5rDqI_QTZeK-57">
            <mxGeometry relative="1" as="geometry">
              <Array as="points" />
              <mxPoint x="483.5" y="424" as="sourcePoint" />
              <mxPoint x="383.5" y="424" as="targetPoint" />
            </mxGeometry>
          </mxCell>
        </UserObject>
        <UserObject label="" tags="Background" id="nlEW3K9Ex5rDqI_QTZeK-118">
          <mxCell style="vsdxID=11820;fillColor=none;gradientColor=none;strokeColor=none;spacingTop=-3;spacingBottom=-3;spacingLeft=-3;spacingRight=-3;points=[];labelBackgroundColor=none;rounded=0;html=1;whiteSpace=wrap;" vertex="1" parent="1">
            <mxGeometry x="337" y="454" width="43" height="25" as="geometry" />
          </mxCell>
        </UserObject>
        <mxCell id="nlEW3K9Ex5rDqI_QTZeK-119" style="vsdxID=11821;fillColor=#3999c6;gradientColor=none;shape=stencil(lZRNcsIwDIVPk63Glvy7pnAPpoSSKSVMCC3cvk5tguW0KeyMeM/6FD+7osVptz7WFYpT37Xv9Vez6XcVvVSIzWFXd00fVhUtK1ps265+69rzYRN/H9eDclh9tJ/DDpfo8wacH1worrGiEZT8qayi4fXcRYeMAilEMqSCFmDSHhdM23ogl1SppCx4SiqaNk8lZQBZ931zyHCdBM9xadz2V4NU4CUzSLA4O54Ex+cTfDYLSvPRBB9LAWk+VdmTM2b6BxEBFUekkelGGc4EOeX4ZWdA5z+mVaCJkU6Oq0S1FkzBmgcBpyqchoqm7emPsHJgAskP3yMIO8dbRNsT2CLagnOGDGvNObOut6A7QPcMZqkvMe9neS1v5Y0z5FgWVzDcSmM4q6Sx9CCsEyCR0Zr/8ppbZOkZgXMVTlU0qmwR2qCiGeAHnrinDWFxf1G3zX4fH+T8//IFDqX4etPyGw==);strokeColor=none;spacingTop=-3;spacingBottom=-3;spacingLeft=-3;spacingRight=-3;points=[];labelBackgroundColor=none;rounded=0;html=1;whiteSpace=wrap;" vertex="1" parent="nlEW3K9Ex5rDqI_QTZeK-118">
          <mxGeometry x="29" width="13" height="25" as="geometry" />
        </mxCell>
        <mxCell id="nlEW3K9Ex5rDqI_QTZeK-120" style="vsdxID=11822;fillColor=#3999c6;gradientColor=none;shape=stencil(lZTRdoMgDIafxtscSAThuuveo2e10zNXe6zd2rcfHqgS2Ox6h/EP+RJ+KGhzbnanukBxHof+o/5u92NT0EuB2B6bemhHtypoW9Dm0A/1+9Bfjnv/fdpNymn12X9NO1x9HoGUUxKKmw8ohNJHXr3+7TL4BOkFIsjDpxKgrQ9dMShAYxCFSFmBpSCirHCIlBqQVe7aY0QqDQiOSvOuvyYYBcKyBAkVrrVmDCDvTvDOLIJSvDXB27IKtOJ9pVU5ZZzwP0proNIck6BUCakFMpx0Hu8a7PpI3R4VP4Ps0FJax5bAxmbATIS5rSgvTn+YNZmtBsMd4A5QVGu4UiT+tgRV4u9Fg3Oduy3m0UalaT43NE/BpgmZExa2W8p/h3WeNsltdN7QmuMaDVQ+heuuoyaGqx/ONkqRac4y3UiFuYpmlUjMoNcv2uOX7lm9WyzP6qHtOv8qx//TZ9iF/BNO2x8=);strokeColor=none;spacingTop=-3;spacingBottom=-3;spacingLeft=-3;spacingRight=-3;points=[];labelBackgroundColor=none;rounded=0;html=1;whiteSpace=wrap;" vertex="1" parent="nlEW3K9Ex5rDqI_QTZeK-118">
          <mxGeometry width="13" height="25" as="geometry" />
        </mxCell>
        <mxCell id="nlEW3K9Ex5rDqI_QTZeK-121" style="vsdxID=11823;fillColor=#7fba00;gradientColor=none;shape=stencil(jZLREoIgEEW/hlcGFxV8NvsPJzWZTB3Usr9PZmkUKuttd7nL4Q6X8HSo874kwIZRd5fyroqxJvxAAFRbl1qNS0V4Rnhadbo8625qC+z73ChNde1u5oYZ9wLGzA6wB/YRtkfUniaN4sBX24GQVCQ4msGOYhoKqwJvbeaWEqwa7mq+kGFzq/+YF5m5VBFREbtc5jL3zXpWIaQQukBgNEpc6G+ju0zJqJQu1zO5fgG8v4v7mo9GG9X+nYClWKNTqabB5G3P/agtI4wpz54=);strokeColor=none;spacingTop=-3;spacingBottom=-3;spacingLeft=-3;spacingRight=-3;points=[];labelBackgroundColor=none;rounded=0;html=1;whiteSpace=wrap;" vertex="1" parent="nlEW3K9Ex5rDqI_QTZeK-118">
          <mxGeometry x="10" y="9" width="5" height="5" as="geometry" />
        </mxCell>
        <mxCell id="nlEW3K9Ex5rDqI_QTZeK-122" style="vsdxID=11824;fillColor=#7fba00;gradientColor=none;shape=stencil(jZLRDoIwDEW/Zq/LaIHJM+p/EBmyiEAGKP69kM7ApqJvbXe7s5tdhmlXZq1iILreNBd113lfMtwzAF2Xyuh+qhgeGKZFY9TZNEOdU99ms3Kurs1tvmGkvUCIeQfEg/qI2iNpT4MhceCr7UDuuExoNIIdxTyUVgXe2oiWEiwadDVfyLC61X/Miyxcqoy4jF2ucJnbZj2rEHIIXSAgj9CF/ja6yZQJDwOX65lcvgDe34W+5qPRStd/J2AqlugUuqooeetzP2rTiGKKhyc=);strokeColor=none;spacingTop=-3;spacingBottom=-3;spacingLeft=-3;spacingRight=-3;points=[];labelBackgroundColor=none;rounded=0;html=1;whiteSpace=wrap;" vertex="1" parent="nlEW3K9Ex5rDqI_QTZeK-118">
          <mxGeometry x="18" y="9" width="5" height="5" as="geometry" />
        </mxCell>
        <mxCell id="nlEW3K9Ex5rDqI_QTZeK-123" style="vsdxID=11825;fillColor=#7fba00;gradientColor=none;shape=stencil(vVHLDsIgEPwajiQI6RfU+h8bu22JCGRB2/69kG1iazx58DazM/vIjjBtmiCi0CplCjecbZ8nYc5Ca+snJJsLEqYTph0C4Ujh4XvmEaqzont41gkL96naodXKrGF6YSfQtUi0OXXDVlqPfJNP6usotUhYbJIUMmQb/GGrAxpRljVycDBuc1hKM2LclX8/7H9nFfB+82Cd45T2+mcspcSRmu4F);strokeColor=none;spacingTop=-3;spacingBottom=-3;spacingLeft=-3;spacingRight=-3;points=[];labelBackgroundColor=none;rounded=0;html=1;whiteSpace=wrap;" vertex="1" parent="nlEW3K9Ex5rDqI_QTZeK-118">
          <mxGeometry x="27" y="9" width="5" height="5" as="geometry" />
        </mxCell>
        <UserObject label="&lt;div style=&quot;font-size: 1px&quot;&gt;&lt;font style=&quot;font-size:14.11px;font-family:Segoe UI Semibold;color:#6b859a;direction:ltr;letter-spacing:0px;line-height:120%;opacity:1&quot;&gt;&lt;b&gt;Virtual&lt;/b&gt;&lt;/font&gt;&lt;font style=&quot;font-size:14.11px;font-family:Segoe UI Semibold;color:#6b859a;direction:ltr;letter-spacing:0px;line-height:120%;opacity:1&quot;&gt;&lt;b&gt;&lt;br/&gt;&lt;/b&gt;&lt;/font&gt;&lt;font style=&quot;font-size:14.11px;font-family:Segoe UI Semibold;color:#6b859a;direction:ltr;letter-spacing:0px;line-height:120%;opacity:1&quot;&gt;&lt;b&gt;N&lt;/b&gt;&lt;/font&gt;&lt;font style=&quot;font-size:14.11px;font-family:Segoe UI Semibold;color:#6b859a;direction:ltr;letter-spacing:0px;line-height:120%;opacity:1&quot;&gt;&lt;b&gt;etwork &lt;br/&gt;peering&lt;br/&gt;&lt;/b&gt;&lt;/font&gt;&lt;/div&gt;" tags="Background" id="nlEW3K9Ex5rDqI_QTZeK-124">
          <mxCell style="verticalAlign=middle;align=center;overflow=width;vsdxID=11826;fillColor=none;gradientColor=none;shape=stencil(nZBLDoAgDERP0z3SIyjew0SURgSD+Lu9kMZoXLhwN9O+tukAlrNpJg1SzDH4QW/URgNYgZTkjA4UkwJUgGXng+6DX1zLfmoymdXo17xh5zmRJ6Q42BWCfc2oJfdAr+Yv+AP9Cb7OJ3H/2JG1HNGz/84klThPVCc=);strokeColor=none;points=[];labelBackgroundColor=none;rounded=0;html=1;whiteSpace=wrap;" vertex="1" parent="1">
            <mxGeometry x="371" y="436" width="100" height="52" as="geometry" />
          </mxCell>
        </UserObject>
        <UserObject label="" tags="Background" id="nlEW3K9Ex5rDqI_QTZeK-132">
          <mxCell style="vsdxID=11819;fillColor=#fbe5d5;gradientColor=none;shape=stencil(rVFbDsIgEDwNnyQU4glqvcfGblsilmZBS28vZGMsxg9j/JvZmX1kR5g2TLCg0CpE8hdcbR8nYY5CaztPSDZmJEwnTDt4wpH8be6ZL1CcBV39vUxI3KdKh1YbswPTEzuBzlmiVGmKau9zUKM+jlJJQrJBko8QrZ+rrQ5oRJnXyMHBWElhRVx25ebnw/5zVvPFWRm83jxY5zilvf4eSy5xpKZ7AA==);strokeColor=#ed7d31;points=[[0.5,0,0],[0.5,0.5,0],[0.5,0.5,0],[0.5,0.5,0],[1,0.5,0],[0.15,0.85,0],[0.85,0.85,0],[0.85,0.15,0],[0.15,0.15,0]];labelBackgroundColor=none;rounded=0;html=1;whiteSpace=wrap;" vertex="1" parent="1">
            <mxGeometry x="237" y="442" width="40" height="40" as="geometry" />
          </mxCell>
        </UserObject>
        <mxCell id="nlEW3K9Ex5rDqI_QTZeK-133" value="&lt;div style=&quot;font-size: 1px&quot;&gt;&lt;font style=&quot;font-size:14.11px;font-family:Segoe UI Semibold;color:#ed7d31;direction:ltr;letter-spacing:0px;line-height:120%;opacity:1&quot;&gt;&lt;b&gt;4&lt;br/&gt;&lt;/b&gt;&lt;/font&gt;&lt;/div&gt;" style="text;vsdxID=11819;fillColor=none;gradientColor=none;strokeColor=none;points=[[0.5,0,0],[0.5,0.5,0],[0.5,0.5,0],[0.5,0.5,0],[1,0.5,0],[0.15,0.85,0],[0.85,0.85,0],[0.85,0.15,0],[0.15,0.15,0]];labelBackgroundColor=none;rounded=0;html=1;whiteSpace=wrap;verticalAlign=middle;align=center;overflow=width;;html=1;" vertex="1" parent="1">
          <mxGeometry x="239" y="447" width="35" height="30" as="geometry" />
        </mxCell>
      </root>
    </mxGraphModel>
  </diagram>
</mxfile>
